<?xml version="1.0" encoding="us-ascii" standalone="no"?><svg xmlns="http://www.w3.org/2000/svg" xmlns:xlink="http://www.w3.org/1999/xlink" contentStyleType="text/css" height="827px" preserveAspectRatio="none" style="width:2097px;height:827px;background:#FFFFFF;" version="1.1" viewBox="0 0 2097 827" width="2097px" zoomAndPan="magnify"><defs/><g><!--class Menu--><g id="elem_Menu"><rect codeLine="2" fill="#F1F1F1" height="136.0469" id="Menu" rx="2.5" ry="2.5" style="stroke:#181818;stroke-width:0.5;" width="204" x="465" y="461.5"/><ellipse cx="544.75" cy="477.5" fill="#A9DCDF" rx="11" ry="11" style="stroke:#181818;stroke-width:1.0;"/><path d="M546.9375,479.2656 L542.7969,479.2656 L542.375,480.2969 L542.7969,480.2969 Q543.4063,480.2969 543.6719,480.5313 Q543.9375,480.7656 543.9375,481.1563 Q543.9375,481.5313 543.6719,481.7656 Q543.4063,482 542.7969,482 L540.5,482 Q539.8906,482 539.6406,481.7656 Q539.375,481.5313 539.375,481.1406 Q539.375,480.7656 539.6563,480.5313 Q539.9219,480.2813 540.5469,480.2969 L543.2188,473.6406 L542.1094,473.6406 Q541.5,473.6406 541.2344,473.4063 Q540.9688,473.1719 540.9688,472.7813 Q540.9688,472.4063 541.2344,472.1719 Q541.5,471.9375 542.1094,471.9375 L545.7813,471.9375 L549.1719,480.2969 Q549.7656,480.2969 549.9531,480.4375 Q550.3438,480.7031 550.3438,481.1563 Q550.3438,481.5313 550.0781,481.7656 Q549.8281,482 549.2188,482 L546.9219,482 Q546.3125,482 546.0469,481.7656 Q545.7813,481.5313 545.7813,481.1406 Q545.7813,480.7656 546.0469,480.5313 Q546.3125,480.2969 546.9219,480.2969 L547.3438,480.2969 L546.9375,479.2656 Z M546.2188,477.5625 L544.8594,474.1875 L543.4844,477.5625 L546.2188,477.5625 Z " fill="#000000"/><text fill="#000000" font-family="sans-serif" font-size="14" font-style="italic" lengthAdjust="spacing" textLength="36" x="565.25" y="483.2285">Menu</text><line style="stroke:#181818;stroke-width:0.5;" x1="466" x2="668" y1="493.5" y2="493.5"/><polygon fill="none" points="476,502.8047,480,506.8047,476,510.8047,472,506.8047" style="stroke:#B38D22;stroke-width:1.0;"/><text fill="#000000" font-family="sans-serif" font-size="14" lengthAdjust="spacing" textLength="54" x="485" y="512.0332">price: int</text><polygon fill="none" points="476,520.4141,480,524.4141,476,528.4141,472,524.4141" style="stroke:#B38D22;stroke-width:1.0;"/><text fill="#000000" font-family="sans-serif" font-size="14" lengthAdjust="spacing" textLength="117" x="485" y="529.6426">availableCount: int</text><polygon fill="none" points="476,538.0234,480,542.0234,476,546.0234,472,542.0234" style="stroke:#B38D22;stroke-width:1.0;"/><text fill="#000000" font-family="sans-serif" font-size="14" lengthAdjust="spacing" textLength="125" x="485" y="547.252">{final} CODE: String</text><line style="stroke:#181818;stroke-width:0.5;" x1="466" x2="668" y1="554.3281" y2="554.3281"/><ellipse cx="476" cy="568.6328" fill="#84BE84" rx="3" ry="3" style="stroke:#038048;stroke-width:1.0;"/><text fill="#000000" font-family="sans-serif" font-size="14" font-style="italic" lengthAdjust="spacing" textLength="155" x="485" y="572.8613">editMenu(Scanner): void</text><ellipse cx="476" cy="586.2422" fill="#84BE84" rx="3" ry="3" style="stroke:#038048;stroke-width:1.0;"/><text fill="#000000" font-family="sans-serif" font-size="14" font-style="italic" lengthAdjust="spacing" textLength="178" x="485" y="590.4707">createLunchSet(): LunchSet</text></g><!--class ChineseMenu--><g id="elem_ChineseMenu"><rect codeLine="10" fill="#F1F1F1" height="136.0469" id="ChineseMenu" rx="2.5" ry="2.5" style="stroke:#181818;stroke-width:0.5;" width="256" x="396" y="684"/><ellipse cx="476.25" cy="700" fill="#ADD1B2" rx="11" ry="11" style="stroke:#181818;stroke-width:1.0;"/><path d="M479.0156,695.875 Q479.1719,695.6563 479.3594,695.5469 Q479.5469,695.4375 479.7656,695.4375 Q480.1406,695.4375 480.375,695.7031 Q480.6094,695.9531 480.6094,696.5625 L480.6094,698.0156 Q480.6094,698.625 480.375,698.8906 Q480.1406,699.1563 479.7656,699.1563 Q479.4219,699.1563 479.2188,698.9531 Q479.0156,698.7656 478.9063,698.25 Q478.8594,697.8906 478.6719,697.7031 Q478.3438,697.3281 477.7344,697.1094 Q477.125,696.8906 476.5,696.8906 Q475.7344,696.8906 475.0938,697.2188 Q474.4688,697.5469 473.9688,698.2969 Q473.4844,699.0469 473.4844,700.0781 L473.4844,701.1719 Q473.4844,702.4063 474.375,703.2344 Q475.2656,704.0469 476.8594,704.0469 Q477.7969,704.0469 478.4531,703.7969 Q478.8438,703.6406 479.2656,703.2031 Q479.5313,702.9375 479.6719,702.8594 Q479.8281,702.7813 480.0313,702.7813 Q480.3594,702.7813 480.6094,703.0469 Q480.875,703.2969 480.875,703.6406 Q480.875,703.9844 480.5313,704.3906 Q480.0313,704.9688 479.2344,705.2969 Q478.1563,705.75 476.8594,705.75 Q475.3438,705.75 474.1406,705.125 Q473.1563,704.625 472.4688,703.5625 Q471.7813,702.4844 471.7813,701.2031 L471.7813,700.0469 Q471.7813,698.7188 472.3906,697.5781 Q473.0156,696.4219 474.1094,695.8125 Q475.2031,695.1875 476.4375,695.1875 Q477.1719,695.1875 477.8125,695.3594 Q478.4688,695.5156 479.0156,695.875 Z " fill="#000000"/><text fill="#000000" font-family="sans-serif" font-size="14" lengthAdjust="spacing" textLength="87" x="496.75" y="705.7285">ChineseMenu</text><line style="stroke:#181818;stroke-width:0.5;" x1="397" x2="651" y1="716" y2="716"/><rect fill="none" height="6" style="stroke:#C82930;stroke-width:1.0;" width="6" x="404" y="727.3047"/><text fill="#000000" font-family="sans-serif" font-size="14" lengthAdjust="spacing" textLength="103" x="416" y="734.5332">mainDish: String</text><rect fill="none" height="6" style="stroke:#C82930;stroke-width:1.0;" width="6" x="404" y="744.9141"/><text fill="#000000" font-family="sans-serif" font-size="14" lengthAdjust="spacing" textLength="76" x="416" y="752.1426">soup: String</text><line style="stroke:#181818;stroke-width:0.5;" x1="397" x2="651" y1="759.2188" y2="759.2188"/><ellipse cx="407" cy="773.5234" fill="#84BE84" rx="3" ry="3" style="stroke:#038048;stroke-width:1.0;"/><text fill="#000000" font-family="sans-serif" font-size="14" lengthAdjust="spacing" textLength="155" x="416" y="777.752">editMenu(Scanner): void</text><ellipse cx="407" cy="791.1328" fill="#84BE84" rx="3" ry="3" style="stroke:#038048;stroke-width:1.0;"/><text fill="#000000" font-family="sans-serif" font-size="14" lengthAdjust="spacing" textLength="230" x="416" y="795.3613">createLunchSet(): ChineseLunchSet</text><ellipse cx="407" cy="808.7422" fill="#84BE84" rx="3" ry="3" style="stroke:#038048;stroke-width:1.0;"/><text fill="#000000" font-family="sans-serif" font-size="14" lengthAdjust="spacing" textLength="104" x="416" y="812.9707">toString(): String</text></g><!--class WesternMenu--><g id="elem_WesternMenu"><rect codeLine="18" fill="#F1F1F1" height="136.0469" id="WesternMenu" rx="2.5" ry="2.5" style="stroke:#181818;stroke-width:0.5;" width="257" x="60.5" y="684"/><ellipse cx="140.75" cy="700" fill="#ADD1B2" rx="11" ry="11" style="stroke:#181818;stroke-width:1.0;"/><path d="M143.5156,695.875 Q143.6719,695.6563 143.8594,695.5469 Q144.0469,695.4375 144.2656,695.4375 Q144.6406,695.4375 144.875,695.7031 Q145.1094,695.9531 145.1094,696.5625 L145.1094,698.0156 Q145.1094,698.625 144.875,698.8906 Q144.6406,699.1563 144.2656,699.1563 Q143.9219,699.1563 143.7188,698.9531 Q143.5156,698.7656 143.4063,698.25 Q143.3594,697.8906 143.1719,697.7031 Q142.8438,697.3281 142.2344,697.1094 Q141.625,696.8906 141,696.8906 Q140.2344,696.8906 139.5938,697.2188 Q138.9688,697.5469 138.4688,698.2969 Q137.9844,699.0469 137.9844,700.0781 L137.9844,701.1719 Q137.9844,702.4063 138.875,703.2344 Q139.7656,704.0469 141.3594,704.0469 Q142.2969,704.0469 142.9531,703.7969 Q143.3438,703.6406 143.7656,703.2031 Q144.0313,702.9375 144.1719,702.8594 Q144.3281,702.7813 144.5313,702.7813 Q144.8594,702.7813 145.1094,703.0469 Q145.375,703.2969 145.375,703.6406 Q145.375,703.9844 145.0313,704.3906 Q144.5313,704.9688 143.7344,705.2969 Q142.6563,705.75 141.3594,705.75 Q139.8438,705.75 138.6406,705.125 Q137.6563,704.625 136.9688,703.5625 Q136.2813,702.4844 136.2813,701.2031 L136.2813,700.0469 Q136.2813,698.7188 136.8906,697.5781 Q137.5156,696.4219 138.6094,695.8125 Q139.7031,695.1875 140.9375,695.1875 Q141.6719,695.1875 142.3125,695.3594 Q142.9688,695.5156 143.5156,695.875 Z " fill="#000000"/><text fill="#000000" font-family="sans-serif" font-size="14" lengthAdjust="spacing" textLength="88" x="161.25" y="705.7285">WesternMenu</text><line style="stroke:#181818;stroke-width:0.5;" x1="61.5" x2="316.5" y1="716" y2="716"/><rect fill="none" height="6" style="stroke:#C82930;stroke-width:1.0;" width="6" x="68.5" y="727.3047"/><text fill="#000000" font-family="sans-serif" font-size="14" lengthAdjust="spacing" textLength="103" x="80.5" y="734.5332">mainDish: String</text><rect fill="none" height="6" style="stroke:#C82930;stroke-width:1.0;" width="6" x="68.5" y="744.9141"/><text fill="#000000" font-family="sans-serif" font-size="14" lengthAdjust="spacing" textLength="76" x="80.5" y="752.1426">soup: String</text><line style="stroke:#181818;stroke-width:0.5;" x1="61.5" x2="316.5" y1="759.2188" y2="759.2188"/><ellipse cx="71.5" cy="773.5234" fill="#84BE84" rx="3" ry="3" style="stroke:#038048;stroke-width:1.0;"/><text fill="#000000" font-family="sans-serif" font-size="14" lengthAdjust="spacing" textLength="155" x="80.5" y="777.752">editMenu(Scanner): void</text><ellipse cx="71.5" cy="791.1328" fill="#84BE84" rx="3" ry="3" style="stroke:#038048;stroke-width:1.0;"/><text fill="#000000" font-family="sans-serif" font-size="14" lengthAdjust="spacing" textLength="231" x="80.5" y="795.3613">createLunchSet(): WesternLunchSet</text><ellipse cx="71.5" cy="808.7422" fill="#84BE84" rx="3" ry="3" style="stroke:#038048;stroke-width:1.0;"/><text fill="#000000" font-family="sans-serif" font-size="14" lengthAdjust="spacing" textLength="104" x="80.5" y="812.9707">toString(): String</text></g><!--class LunchSet--><g id="elem_LunchSet"><rect codeLine="26" fill="#F1F1F1" height="100.8281" id="LunchSet" rx="2.5" ry="2.5" style="stroke:#181818;stroke-width:0.5;" width="193" x="121.5" y="247.5"/><ellipse cx="183.75" cy="263.5" fill="#A9DCDF" rx="11" ry="11" style="stroke:#181818;stroke-width:1.0;"/><path d="M185.9375,265.2656 L181.7969,265.2656 L181.375,266.2969 L181.7969,266.2969 Q182.4063,266.2969 182.6719,266.5313 Q182.9375,266.7656 182.9375,267.1563 Q182.9375,267.5313 182.6719,267.7656 Q182.4063,268 181.7969,268 L179.5,268 Q178.8906,268 178.6406,267.7656 Q178.375,267.5313 178.375,267.1406 Q178.375,266.7656 178.6563,266.5313 Q178.9219,266.2813 179.5469,266.2969 L182.2188,259.6406 L181.1094,259.6406 Q180.5,259.6406 180.2344,259.4063 Q179.9688,259.1719 179.9688,258.7813 Q179.9688,258.4063 180.2344,258.1719 Q180.5,257.9375 181.1094,257.9375 L184.7813,257.9375 L188.1719,266.2969 Q188.7656,266.2969 188.9531,266.4375 Q189.3438,266.7031 189.3438,267.1563 Q189.3438,267.5313 189.0781,267.7656 Q188.8281,268 188.2188,268 L185.9219,268 Q185.3125,268 185.0469,267.7656 Q184.7813,267.5313 184.7813,267.1406 Q184.7813,266.7656 185.0469,266.5313 Q185.3125,266.2969 185.9219,266.2969 L186.3438,266.2969 L185.9375,265.2656 Z M185.2188,263.5625 L183.8594,260.1875 L182.4844,263.5625 L185.2188,263.5625 Z " fill="#000000"/><text fill="#000000" font-family="sans-serif" font-size="14" font-style="italic" lengthAdjust="spacing" textLength="60" x="204.25" y="269.2285">LunchSet</text><line style="stroke:#181818;stroke-width:0.5;" x1="122.5" x2="313.5" y1="279.5" y2="279.5"/><polygon fill="none" points="132.5,288.8047,136.5,292.8047,132.5,296.8047,128.5,292.8047" style="stroke:#B38D22;stroke-width:1.0;"/><text fill="#000000" font-family="sans-serif" font-size="14" lengthAdjust="spacing" textLength="78" x="141.5" y="298.0332">menu: Menu</text><line style="stroke:#181818;stroke-width:0.5;" x1="122.5" x2="313.5" y1="305.1094" y2="305.1094"/><ellipse cx="132.5" cy="319.4141" fill="#84BE84" rx="3" ry="3" style="stroke:#038048;stroke-width:1.0;"/><text fill="#000000" font-family="sans-serif" font-size="14" lengthAdjust="spacing" textLength="108" x="141.5" y="323.6426">getMenu(): Menu</text><ellipse cx="132.5" cy="337.0234" fill="#84BE84" rx="3" ry="3" style="stroke:#038048;stroke-width:1.0;"/><text fill="#000000" font-family="sans-serif" font-size="14" font-style="italic" lengthAdjust="spacing" textLength="167" x="141.5" y="341.252">placeOrder(Scanner): void</text></g><!--class ChineseLunchSet--><g id="elem_ChineseLunchSet"><rect codeLine="32" fill="#F1F1F1" height="171.2656" id="ChineseLunchSet" rx="2.5" ry="2.5" style="stroke:#181818;stroke-width:0.5;" width="194" x="236" y="444"/><ellipse cx="273.5" cy="460" fill="#ADD1B2" rx="11" ry="11" style="stroke:#181818;stroke-width:1.0;"/><path d="M276.2656,455.875 Q276.4219,455.6563 276.6094,455.5469 Q276.7969,455.4375 277.0156,455.4375 Q277.3906,455.4375 277.625,455.7031 Q277.8594,455.9531 277.8594,456.5625 L277.8594,458.0156 Q277.8594,458.625 277.625,458.8906 Q277.3906,459.1563 277.0156,459.1563 Q276.6719,459.1563 276.4688,458.9531 Q276.2656,458.7656 276.1563,458.25 Q276.1094,457.8906 275.9219,457.7031 Q275.5938,457.3281 274.9844,457.1094 Q274.375,456.8906 273.75,456.8906 Q272.9844,456.8906 272.3438,457.2188 Q271.7188,457.5469 271.2188,458.2969 Q270.7344,459.0469 270.7344,460.0781 L270.7344,461.1719 Q270.7344,462.4063 271.625,463.2344 Q272.5156,464.0469 274.1094,464.0469 Q275.0469,464.0469 275.7031,463.7969 Q276.0938,463.6406 276.5156,463.2031 Q276.7813,462.9375 276.9219,462.8594 Q277.0781,462.7813 277.2813,462.7813 Q277.6094,462.7813 277.8594,463.0469 Q278.125,463.2969 278.125,463.6406 Q278.125,463.9844 277.7813,464.3906 Q277.2813,464.9688 276.4844,465.2969 Q275.4063,465.75 274.1094,465.75 Q272.5938,465.75 271.3906,465.125 Q270.4063,464.625 269.7188,463.5625 Q269.0313,462.4844 269.0313,461.2031 L269.0313,460.0469 Q269.0313,458.7188 269.6406,457.5781 Q270.2656,456.4219 271.3594,455.8125 Q272.4531,455.1875 273.6875,455.1875 Q274.4219,455.1875 275.0625,455.3594 Q275.7188,455.5156 276.2656,455.875 Z " fill="#000000"/><text fill="#000000" font-family="sans-serif" font-size="14" lengthAdjust="spacing" textLength="112" x="292.5" y="465.7285">ChineseLunchSet</text><line style="stroke:#181818;stroke-width:0.5;" x1="237" x2="429" y1="476" y2="476"/><rect fill="none" height="6" style="stroke:#C82930;stroke-width:1.0;" width="6" x="244" y="487.3047"/><text fill="#000000" font-family="sans-serif" font-size="14" lengthAdjust="spacing" textLength="130" x="256" y="494.5332">menu: ChineseMenu</text><rect fill="none" height="6" style="stroke:#C82930;stroke-width:1.0;" width="6" x="244" y="504.9141"/><text fill="#000000" font-family="sans-serif" font-size="14" lengthAdjust="spacing" textLength="76" x="256" y="512.1426">drink: String</text><rect fill="none" height="6" style="stroke:#C82930;stroke-width:1.0;" width="6" x="244" y="522.5234"/><text fill="#000000" font-family="sans-serif" font-size="14" lengthAdjust="spacing" textLength="76" x="256" y="529.752">soup: String</text><line style="stroke:#181818;stroke-width:0.5;" x1="237" x2="429" y1="536.8281" y2="536.8281"/><ellipse cx="247" cy="551.1328" fill="#84BE84" rx="3" ry="3" style="stroke:#038048;stroke-width:1.0;"/><text fill="#000000" font-family="sans-serif" font-size="14" lengthAdjust="spacing" textLength="168" x="256" y="555.3613">placeOrder(Scanner): void</text><ellipse cx="247" cy="568.7422" fill="#84BE84" rx="3" ry="3" style="stroke:#038048;stroke-width:1.0;"/><text fill="#000000" font-family="sans-serif" font-size="14" lengthAdjust="spacing" textLength="104" x="256" y="572.9707">toString(): String</text><ellipse cx="247" cy="586.3516" fill="#84BE84" rx="3" ry="3" style="stroke:#038048;stroke-width:1.0;"/><text fill="#000000" font-family="sans-serif" font-size="14" lengthAdjust="spacing" textLength="132" x="256" y="590.5801">orderDetails(): String</text><ellipse cx="247" cy="603.9609" fill="#84BE84" rx="3" ry="3" style="stroke:#038048;stroke-width:1.0;"/><text fill="#000000" font-family="sans-serif" font-size="14" lengthAdjust="spacing" textLength="160" x="256" y="608.1895">getMenu(): ChineseMenu</text></g><!--class WesternLunchSet--><g id="elem_WesternLunchSet"><rect codeLine="42" fill="#F1F1F1" height="188.875" id="WesternLunchSet" rx="2.5" ry="2.5" style="stroke:#181818;stroke-width:0.5;" width="194" x="7" y="435"/><ellipse cx="44.05" cy="451" fill="#ADD1B2" rx="11" ry="11" style="stroke:#181818;stroke-width:1.0;"/><path d="M46.8156,446.875 Q46.9719,446.6563 47.1594,446.5469 Q47.3469,446.4375 47.5656,446.4375 Q47.9406,446.4375 48.175,446.7031 Q48.4094,446.9531 48.4094,447.5625 L48.4094,449.0156 Q48.4094,449.625 48.175,449.8906 Q47.9406,450.1563 47.5656,450.1563 Q47.2219,450.1563 47.0188,449.9531 Q46.8156,449.7656 46.7063,449.25 Q46.6594,448.8906 46.4719,448.7031 Q46.1438,448.3281 45.5344,448.1094 Q44.925,447.8906 44.3,447.8906 Q43.5344,447.8906 42.8938,448.2188 Q42.2688,448.5469 41.7688,449.2969 Q41.2844,450.0469 41.2844,451.0781 L41.2844,452.1719 Q41.2844,453.4063 42.175,454.2344 Q43.0656,455.0469 44.6594,455.0469 Q45.5969,455.0469 46.2531,454.7969 Q46.6438,454.6406 47.0656,454.2031 Q47.3313,453.9375 47.4719,453.8594 Q47.6281,453.7813 47.8313,453.7813 Q48.1594,453.7813 48.4094,454.0469 Q48.675,454.2969 48.675,454.6406 Q48.675,454.9844 48.3313,455.3906 Q47.8313,455.9688 47.0344,456.2969 Q45.9563,456.75 44.6594,456.75 Q43.1438,456.75 41.9406,456.125 Q40.9563,455.625 40.2688,454.5625 Q39.5813,453.4844 39.5813,452.2031 L39.5813,451.0469 Q39.5813,449.7188 40.1906,448.5781 Q40.8156,447.4219 41.9094,446.8125 Q43.0031,446.1875 44.2375,446.1875 Q44.9719,446.1875 45.6125,446.3594 Q46.2688,446.5156 46.8156,446.875 Z " fill="#000000"/><text fill="#000000" font-family="sans-serif" font-size="14" lengthAdjust="spacing" textLength="113" x="62.95" y="456.7285">WesternLunchSet</text><line style="stroke:#181818;stroke-width:0.5;" x1="8" x2="200" y1="467" y2="467"/><rect fill="none" height="6" style="stroke:#C82930;stroke-width:1.0;" width="6" x="15" y="478.3047"/><text fill="#000000" font-family="sans-serif" font-size="14" lengthAdjust="spacing" textLength="131" x="27" y="485.5332">menu: WesternMenu</text><rect fill="none" height="6" style="stroke:#C82930;stroke-width:1.0;" width="6" x="15" y="495.9141"/><text fill="#000000" font-family="sans-serif" font-size="14" lengthAdjust="spacing" textLength="99" x="27" y="503.1426">sideDish: String</text><rect fill="none" height="6" style="stroke:#C82930;stroke-width:1.0;" width="6" x="15" y="513.5234"/><text fill="#000000" font-family="sans-serif" font-size="14" lengthAdjust="spacing" textLength="76" x="27" y="520.752">drink: String</text><rect fill="none" height="6" style="stroke:#C82930;stroke-width:1.0;" width="6" x="15" y="531.1328"/><text fill="#000000" font-family="sans-serif" font-size="14" lengthAdjust="spacing" textLength="76" x="27" y="538.3613">soup: String</text><line style="stroke:#181818;stroke-width:0.5;" x1="8" x2="200" y1="545.4375" y2="545.4375"/><ellipse cx="18" cy="559.7422" fill="#84BE84" rx="3" ry="3" style="stroke:#038048;stroke-width:1.0;"/><text fill="#000000" font-family="sans-serif" font-size="14" lengthAdjust="spacing" textLength="168" x="27" y="563.9707">placeOrder(Scanner): void</text><ellipse cx="18" cy="577.3516" fill="#84BE84" rx="3" ry="3" style="stroke:#038048;stroke-width:1.0;"/><text fill="#000000" font-family="sans-serif" font-size="14" lengthAdjust="spacing" textLength="104" x="27" y="581.5801">toString(): String</text><ellipse cx="18" cy="594.9609" fill="#84BE84" rx="3" ry="3" style="stroke:#038048;stroke-width:1.0;"/><text fill="#000000" font-family="sans-serif" font-size="14" lengthAdjust="spacing" textLength="132" x="27" y="599.1895">orderDetails(): String</text><ellipse cx="18" cy="612.5703" fill="#84BE84" rx="3" ry="3" style="stroke:#038048;stroke-width:1.0;"/><text fill="#000000" font-family="sans-serif" font-size="14" lengthAdjust="spacing" textLength="161" x="27" y="616.7988">getMenu(): WesternMenu</text></g><!--class Order--><g id="elem_Order"><rect codeLine="53" fill="#F1F1F1" height="118.4375" id="Order" rx="2.5" ry="2.5" style="stroke:#181818;stroke-width:0.5;" width="159" x="138.5" y="25"/><ellipse cx="195.25" cy="41" fill="#ADD1B2" rx="11" ry="11" style="stroke:#181818;stroke-width:1.0;"/><path d="M198.0156,36.875 Q198.1719,36.6563 198.3594,36.5469 Q198.5469,36.4375 198.7656,36.4375 Q199.1406,36.4375 199.375,36.7031 Q199.6094,36.9531 199.6094,37.5625 L199.6094,39.0156 Q199.6094,39.625 199.375,39.8906 Q199.1406,40.1563 198.7656,40.1563 Q198.4219,40.1563 198.2188,39.9531 Q198.0156,39.7656 197.9063,39.25 Q197.8594,38.8906 197.6719,38.7031 Q197.3438,38.3281 196.7344,38.1094 Q196.125,37.8906 195.5,37.8906 Q194.7344,37.8906 194.0938,38.2188 Q193.4688,38.5469 192.9688,39.2969 Q192.4844,40.0469 192.4844,41.0781 L192.4844,42.1719 Q192.4844,43.4063 193.375,44.2344 Q194.2656,45.0469 195.8594,45.0469 Q196.7969,45.0469 197.4531,44.7969 Q197.8438,44.6406 198.2656,44.2031 Q198.5313,43.9375 198.6719,43.8594 Q198.8281,43.7813 199.0313,43.7813 Q199.3594,43.7813 199.6094,44.0469 Q199.875,44.2969 199.875,44.6406 Q199.875,44.9844 199.5313,45.3906 Q199.0313,45.9688 198.2344,46.2969 Q197.1563,46.75 195.8594,46.75 Q194.3438,46.75 193.1406,46.125 Q192.1563,45.625 191.4688,44.5625 Q190.7813,43.4844 190.7813,42.2031 L190.7813,41.0469 Q190.7813,39.7188 191.3906,38.5781 Q192.0156,37.4219 193.1094,36.8125 Q194.2031,36.1875 195.4375,36.1875 Q196.1719,36.1875 196.8125,36.3594 Q197.4688,36.5156 198.0156,36.875 Z " fill="#000000"/><text fill="#000000" font-family="sans-serif" font-size="14" lengthAdjust="spacing" textLength="37" x="215.75" y="46.7285">Order</text><line style="stroke:#181818;stroke-width:0.5;" x1="139.5" x2="296.5" y1="57" y2="57"/><rect fill="none" height="6" style="stroke:#C82930;stroke-width:1.0;" width="6" x="146.5" y="68.3047"/><text fill="#000000" font-family="sans-serif" font-size="14" lengthAdjust="spacing" textLength="121" x="158.5" y="75.5332">lunchset: LunchSet</text><rect fill="none" height="6" style="stroke:#C82930;stroke-width:1.0;" width="6" x="146.5" y="85.9141"/><text fill="#000000" font-family="sans-serif" font-size="14" lengthAdjust="spacing" textLength="121" x="158.5" y="93.1426">staffNumber: String</text><rect fill="none" height="6" style="stroke:#C82930;stroke-width:1.0;" width="6" x="146.5" y="103.5234"/><text fill="#000000" font-family="sans-serif" font-size="14" lengthAdjust="spacing" textLength="133" x="158.5" y="110.752">officeLocation: String</text><line style="stroke:#181818;stroke-width:0.5;" x1="139.5" x2="296.5" y1="117.8281" y2="117.8281"/><ellipse cx="149.5" cy="132.1328" fill="#84BE84" rx="3" ry="3" style="stroke:#038048;stroke-width:1.0;"/><text fill="#000000" font-family="sans-serif" font-size="14" lengthAdjust="spacing" textLength="131" x="158.5" y="136.3613">place(Scanner): void</text></g><!--class MenuFactory--><g id="elem_MenuFactory"><rect codeLine="60" fill="#F1F1F1" height="153.6563" id="MenuFactory" rx="2.5" ry="2.5" style="stroke:#181818;stroke-width:0.5;" width="206" x="464" y="221"/><ellipse cx="521.25" cy="237" fill="#ADD1B2" rx="11" ry="11" style="stroke:#181818;stroke-width:1.0;"/><path d="M524.0156,232.875 Q524.1719,232.6563 524.3594,232.5469 Q524.5469,232.4375 524.7656,232.4375 Q525.1406,232.4375 525.375,232.7031 Q525.6094,232.9531 525.6094,233.5625 L525.6094,235.0156 Q525.6094,235.625 525.375,235.8906 Q525.1406,236.1563 524.7656,236.1563 Q524.4219,236.1563 524.2188,235.9531 Q524.0156,235.7656 523.9063,235.25 Q523.8594,234.8906 523.6719,234.7031 Q523.3438,234.3281 522.7344,234.1094 Q522.125,233.8906 521.5,233.8906 Q520.7344,233.8906 520.0938,234.2188 Q519.4688,234.5469 518.9688,235.2969 Q518.4844,236.0469 518.4844,237.0781 L518.4844,238.1719 Q518.4844,239.4063 519.375,240.2344 Q520.2656,241.0469 521.8594,241.0469 Q522.7969,241.0469 523.4531,240.7969 Q523.8438,240.6406 524.2656,240.2031 Q524.5313,239.9375 524.6719,239.8594 Q524.8281,239.7813 525.0313,239.7813 Q525.3594,239.7813 525.6094,240.0469 Q525.875,240.2969 525.875,240.6406 Q525.875,240.9844 525.5313,241.3906 Q525.0313,241.9688 524.2344,242.2969 Q523.1563,242.75 521.8594,242.75 Q520.3438,242.75 519.1406,242.125 Q518.1563,241.625 517.4688,240.5625 Q516.7813,239.4844 516.7813,238.2031 L516.7813,237.0469 Q516.7813,235.7188 517.3906,234.5781 Q518.0156,233.4219 519.1094,232.8125 Q520.2031,232.1875 521.4375,232.1875 Q522.1719,232.1875 522.8125,232.3594 Q523.4688,232.5156 524.0156,232.875 Z " fill="#000000"/><text fill="#000000" font-family="sans-serif" font-size="14" lengthAdjust="spacing" textLength="83" x="541.75" y="242.7285">MenuFactory</text><line style="stroke:#181818;stroke-width:0.5;" x1="465" x2="669" y1="253" y2="253"/><ellipse cx="475" cy="267.3047" fill="none" rx="3" ry="3" style="stroke:#038048;stroke-width:1.0;"/><text fill="#000000" font-family="sans-serif" font-size="14" lengthAdjust="spacing" text-decoration="underline" textLength="179" x="484" y="271.5332">chineseMenu: ChineseMenu</text><ellipse cx="475" cy="284.9141" fill="none" rx="3" ry="3" style="stroke:#038048;stroke-width:1.0;"/><text fill="#000000" font-family="sans-serif" font-size="14" lengthAdjust="spacing" text-decoration="underline" textLength="180" x="484" y="289.1426">westernMenu: WesternMenu</text><rect fill="none" height="6" style="stroke:#C82930;stroke-width:1.0;" width="6" x="472" y="299.5234"/><text fill="#000000" font-family="sans-serif" font-size="14" lengthAdjust="spacing" text-decoration="underline" textLength="93" x="484" y="306.752">menus: Menu[]</text><line style="stroke:#181818;stroke-width:0.5;" x1="465" x2="669" y1="313.8281" y2="313.8281"/><ellipse cx="475" cy="328.1328" fill="#84BE84" rx="3" ry="3" style="stroke:#038048;stroke-width:1.0;"/><text fill="#000000" font-family="sans-serif" font-size="14" lengthAdjust="spacing" text-decoration="underline" textLength="161" x="484" y="332.3613">getMenu(Scanner): Menu</text><ellipse cx="475" cy="345.7422" fill="#84BE84" rx="3" ry="3" style="stroke:#038048;stroke-width:1.0;"/><text fill="#000000" font-family="sans-serif" font-size="14" lengthAdjust="spacing" text-decoration="underline" textLength="145" x="484" y="349.9707">getMenu(String): Menu</text><ellipse cx="475" cy="363.3516" fill="#84BE84" rx="3" ry="3" style="stroke:#038048;stroke-width:1.0;"/><text fill="#000000" font-family="sans-serif" font-size="14" lengthAdjust="spacing" text-decoration="underline" textLength="123" x="484" y="367.5801">getMenus(): Menu[]</text></g><!--class CommandFactory--><g id="elem_CommandFactory"><rect codeLine="69" fill="#F1F1F1" height="83.2188" id="CommandFactory" rx="2.5" ry="2.5" style="stroke:#181818;stroke-width:0.5;" width="144" x="1282" y="256.5"/><ellipse cx="1297" cy="272.5" fill="#B4A7E5" rx="11" ry="11" style="stroke:#181818;stroke-width:1.0;"/><path d="M1297.9531,269.1406 L1297.9531,275.7969 L1299.6719,275.7969 Q1300.2813,275.7969 1300.5469,276.0313 Q1300.8125,276.2656 1300.8125,276.6563 Q1300.8125,277.0313 1300.5469,277.2656 Q1300.2813,277.5 1299.6719,277.5 L1294.5313,277.5 Q1293.9219,277.5 1293.6563,277.2656 Q1293.3906,277.0313 1293.3906,276.6406 Q1293.3906,276.2656 1293.6563,276.0313 Q1293.9219,275.7969 1294.5313,275.7969 L1296.25,275.7969 L1296.25,269.1406 L1294.5313,269.1406 Q1293.9219,269.1406 1293.6563,268.9063 Q1293.3906,268.6719 1293.3906,268.2813 Q1293.3906,267.9063 1293.6563,267.6719 Q1293.9219,267.4375 1294.5313,267.4375 L1299.6719,267.4375 Q1300.2813,267.4375 1300.5469,267.6719 Q1300.8125,267.9063 1300.8125,268.2813 Q1300.8125,268.6719 1300.5469,268.9063 Q1300.2813,269.1406 1299.6719,269.1406 L1297.9531,269.1406 Z " fill="#000000"/><text fill="#000000" font-family="sans-serif" font-size="14" font-style="italic" lengthAdjust="spacing" textLength="112" x="1311" y="278.2285">CommandFactory</text><line style="stroke:#181818;stroke-width:0.5;" x1="1283" x2="1425" y1="288.5" y2="288.5"/><line style="stroke:#181818;stroke-width:0.5;" x1="1283" x2="1425" y1="296.5" y2="296.5"/><ellipse cx="1293" cy="310.8047" fill="#84BE84" rx="3" ry="3" style="stroke:#038048;stroke-width:1.0;"/><text fill="#000000" font-family="sans-serif" font-size="14" lengthAdjust="spacing" textLength="93" x="1302" y="315.0332">execute(): void</text><ellipse cx="1293" cy="328.4141" fill="#84BE84" rx="3" ry="3" style="stroke:#038048;stroke-width:1.0;"/><text fill="#000000" font-family="sans-serif" font-size="14" lengthAdjust="spacing" textLength="76" x="1302" y="332.6426">undo(): void</text></g><!--class Controller--><g id="elem_Controller"><rect codeLine="74" fill="#F1F1F1" height="153.6563" id="Controller" rx="2.5" ry="2.5" style="stroke:#181818;stroke-width:0.5;" width="295" x="1206.5" y="7"/><ellipse cx="1318.75" cy="23" fill="#ADD1B2" rx="11" ry="11" style="stroke:#181818;stroke-width:1.0;"/><path d="M1321.5156,18.875 Q1321.6719,18.6563 1321.8594,18.5469 Q1322.0469,18.4375 1322.2656,18.4375 Q1322.6406,18.4375 1322.875,18.7031 Q1323.1094,18.9531 1323.1094,19.5625 L1323.1094,21.0156 Q1323.1094,21.625 1322.875,21.8906 Q1322.6406,22.1563 1322.2656,22.1563 Q1321.9219,22.1563 1321.7188,21.9531 Q1321.5156,21.7656 1321.4063,21.25 Q1321.3594,20.8906 1321.1719,20.7031 Q1320.8438,20.3281 1320.2344,20.1094 Q1319.625,19.8906 1319,19.8906 Q1318.2344,19.8906 1317.5938,20.2188 Q1316.9688,20.5469 1316.4688,21.2969 Q1315.9844,22.0469 1315.9844,23.0781 L1315.9844,24.1719 Q1315.9844,25.4063 1316.875,26.2344 Q1317.7656,27.0469 1319.3594,27.0469 Q1320.2969,27.0469 1320.9531,26.7969 Q1321.3438,26.6406 1321.7656,26.2031 Q1322.0313,25.9375 1322.1719,25.8594 Q1322.3281,25.7813 1322.5313,25.7813 Q1322.8594,25.7813 1323.1094,26.0469 Q1323.375,26.2969 1323.375,26.6406 Q1323.375,26.9844 1323.0313,27.3906 Q1322.5313,27.9688 1321.7344,28.2969 Q1320.6563,28.75 1319.3594,28.75 Q1317.8438,28.75 1316.6406,28.125 Q1315.6563,27.625 1314.9688,26.5625 Q1314.2813,25.4844 1314.2813,24.2031 L1314.2813,23.0469 Q1314.2813,21.7188 1314.8906,20.5781 Q1315.5156,19.4219 1316.6094,18.8125 Q1317.7031,18.1875 1318.9375,18.1875 Q1319.6719,18.1875 1320.3125,18.3594 Q1320.9688,18.5156 1321.5156,18.875 Z " fill="#000000"/><text fill="#000000" font-family="sans-serif" font-size="14" lengthAdjust="spacing" textLength="62" x="1339.25" y="28.7285">Controller</text><line style="stroke:#181818;stroke-width:0.5;" x1="1207.5" x2="1500.5" y1="39" y2="39"/><rect fill="none" height="6" style="stroke:#C82930;stroke-width:1.0;" width="6" x="1214.5" y="50.3047"/><text fill="#000000" font-family="sans-serif" font-size="14" lengthAdjust="spacing" text-decoration="underline" textLength="75" x="1226.5" y="57.5332">sc: Scanner</text><rect fill="none" height="6" style="stroke:#C82930;stroke-width:1.0;" width="6" x="1214.5" y="67.9141"/><text fill="#000000" font-family="sans-serif" font-size="14" lengthAdjust="spacing" text-decoration="underline" textLength="235" x="1226.5" y="75.1426">outstandingOrders: ArrayList&lt;Order&gt;</text><rect fill="none" height="6" style="stroke:#C82930;stroke-width:1.0;" width="6" x="1214.5" y="85.5234"/><text fill="#000000" font-family="sans-serif" font-size="14" lengthAdjust="spacing" text-decoration="underline" textLength="226" x="1226.5" y="92.752">completedOrders: ArrayList&lt;Order&gt;</text><rect fill="none" height="6" style="stroke:#C82930;stroke-width:1.0;" width="6" x="1214.5" y="103.1328"/><text fill="#000000" font-family="sans-serif" font-size="14" lengthAdjust="spacing" text-decoration="underline" textLength="260" x="1226.5" y="110.3613">commands: ArrayList&lt;CommandFactory&gt;</text><line style="stroke:#181818;stroke-width:0.5;" x1="1207.5" x2="1500.5" y1="117.4375" y2="117.4375"/><ellipse cx="1217.5" cy="131.7422" fill="#84BE84" rx="3" ry="3" style="stroke:#038048;stroke-width:1.0;"/><text fill="#000000" font-family="sans-serif" font-size="14" lengthAdjust="spacing" text-decoration="underline" textLength="119" x="1226.5" y="135.9707">main(String[]): void</text><rect fill="#F24D5C" height="6" style="stroke:#C82930;stroke-width:1.0;" width="6" x="1214.5" y="146.3516"/><text fill="#000000" font-family="sans-serif" font-size="14" lengthAdjust="spacing" text-decoration="underline" textLength="269" x="1226.5" y="153.5801">executeCommand(CommandFactory): void</text></g><!--class EditMenuCommand--><g id="elem_EditMenuCommand"><rect codeLine="83" fill="#F1F1F1" height="100.8281" id="EditMenuCommand" rx="2.5" ry="2.5" style="stroke:#181818;stroke-width:0.5;" width="155" x="704.5" y="479"/><ellipse cx="719.5" cy="495" fill="#ADD1B2" rx="11" ry="11" style="stroke:#181818;stroke-width:1.0;"/><path d="M722.2656,490.875 Q722.4219,490.6563 722.6094,490.5469 Q722.7969,490.4375 723.0156,490.4375 Q723.3906,490.4375 723.625,490.7031 Q723.8594,490.9531 723.8594,491.5625 L723.8594,493.0156 Q723.8594,493.625 723.625,493.8906 Q723.3906,494.1563 723.0156,494.1563 Q722.6719,494.1563 722.4688,493.9531 Q722.2656,493.7656 722.1563,493.25 Q722.1094,492.8906 721.9219,492.7031 Q721.5938,492.3281 720.9844,492.1094 Q720.375,491.8906 719.75,491.8906 Q718.9844,491.8906 718.3438,492.2188 Q717.7188,492.5469 717.2188,493.2969 Q716.7344,494.0469 716.7344,495.0781 L716.7344,496.1719 Q716.7344,497.4063 717.625,498.2344 Q718.5156,499.0469 720.1094,499.0469 Q721.0469,499.0469 721.7031,498.7969 Q722.0938,498.6406 722.5156,498.2031 Q722.7813,497.9375 722.9219,497.8594 Q723.0781,497.7813 723.2813,497.7813 Q723.6094,497.7813 723.8594,498.0469 Q724.125,498.2969 724.125,498.6406 Q724.125,498.9844 723.7813,499.3906 Q723.2813,499.9688 722.4844,500.2969 Q721.4063,500.75 720.1094,500.75 Q718.5938,500.75 717.3906,500.125 Q716.4063,499.625 715.7188,498.5625 Q715.0313,497.4844 715.0313,496.2031 L715.0313,495.0469 Q715.0313,493.7188 715.6406,492.5781 Q716.2656,491.4219 717.3594,490.8125 Q718.4531,490.1875 719.6875,490.1875 Q720.4219,490.1875 721.0625,490.3594 Q721.7188,490.5156 722.2656,490.875 Z " fill="#000000"/><text fill="#000000" font-family="sans-serif" font-size="14" lengthAdjust="spacing" textLength="123" x="733.5" y="500.7285">EditMenuCommand</text><line style="stroke:#181818;stroke-width:0.5;" x1="705.5" x2="858.5" y1="511" y2="511"/><rect fill="none" height="6" style="stroke:#C82930;stroke-width:1.0;" width="6" x="712.5" y="522.3047"/><text fill="#000000" font-family="sans-serif" font-size="14" lengthAdjust="spacing" textLength="75" x="724.5" y="529.5332">sc: Scanner</text><line style="stroke:#181818;stroke-width:0.5;" x1="705.5" x2="858.5" y1="536.6094" y2="536.6094"/><ellipse cx="715.5" cy="550.9141" fill="#84BE84" rx="3" ry="3" style="stroke:#038048;stroke-width:1.0;"/><text fill="#000000" font-family="sans-serif" font-size="14" lengthAdjust="spacing" textLength="93" x="724.5" y="555.1426">execute(): void</text><ellipse cx="715.5" cy="568.5234" fill="#84BE84" rx="3" ry="3" style="stroke:#038048;stroke-width:1.0;"/><text fill="#000000" font-family="sans-serif" font-size="14" lengthAdjust="spacing" textLength="76" x="724.5" y="572.752">undo(): void</text></g><!--class ShowMenuCommand--><g id="elem_ShowMenuCommand"><rect codeLine="89" fill="#F1F1F1" height="100.8281" id="ShowMenuCommand" rx="2.5" ry="2.5" style="stroke:#181818;stroke-width:0.5;" width="165" x="894.5" y="479"/><ellipse cx="909.5" cy="495" fill="#ADD1B2" rx="11" ry="11" style="stroke:#181818;stroke-width:1.0;"/><path d="M912.2656,490.875 Q912.4219,490.6563 912.6094,490.5469 Q912.7969,490.4375 913.0156,490.4375 Q913.3906,490.4375 913.625,490.7031 Q913.8594,490.9531 913.8594,491.5625 L913.8594,493.0156 Q913.8594,493.625 913.625,493.8906 Q913.3906,494.1563 913.0156,494.1563 Q912.6719,494.1563 912.4688,493.9531 Q912.2656,493.7656 912.1563,493.25 Q912.1094,492.8906 911.9219,492.7031 Q911.5938,492.3281 910.9844,492.1094 Q910.375,491.8906 909.75,491.8906 Q908.9844,491.8906 908.3438,492.2188 Q907.7188,492.5469 907.2188,493.2969 Q906.7344,494.0469 906.7344,495.0781 L906.7344,496.1719 Q906.7344,497.4063 907.625,498.2344 Q908.5156,499.0469 910.1094,499.0469 Q911.0469,499.0469 911.7031,498.7969 Q912.0938,498.6406 912.5156,498.2031 Q912.7813,497.9375 912.9219,497.8594 Q913.0781,497.7813 913.2813,497.7813 Q913.6094,497.7813 913.8594,498.0469 Q914.125,498.2969 914.125,498.6406 Q914.125,498.9844 913.7813,499.3906 Q913.2813,499.9688 912.4844,500.2969 Q911.4063,500.75 910.1094,500.75 Q908.5938,500.75 907.3906,500.125 Q906.4063,499.625 905.7188,498.5625 Q905.0313,497.4844 905.0313,496.2031 L905.0313,495.0469 Q905.0313,493.7188 905.6406,492.5781 Q906.2656,491.4219 907.3594,490.8125 Q908.4531,490.1875 909.6875,490.1875 Q910.4219,490.1875 911.0625,490.3594 Q911.7188,490.5156 912.2656,490.875 Z " fill="#000000"/><text fill="#000000" font-family="sans-serif" font-size="14" lengthAdjust="spacing" textLength="133" x="923.5" y="500.7285">ShowMenuCommand</text><line style="stroke:#181818;stroke-width:0.5;" x1="895.5" x2="1058.5" y1="511" y2="511"/><rect fill="none" height="6" style="stroke:#C82930;stroke-width:1.0;" width="6" x="902.5" y="522.3047"/><text fill="#000000" font-family="sans-serif" font-size="14" lengthAdjust="spacing" textLength="75" x="914.5" y="529.5332">sc: Scanner</text><line style="stroke:#181818;stroke-width:0.5;" x1="895.5" x2="1058.5" y1="536.6094" y2="536.6094"/><ellipse cx="905.5" cy="550.9141" fill="#84BE84" rx="3" ry="3" style="stroke:#038048;stroke-width:1.0;"/><text fill="#000000" font-family="sans-serif" font-size="14" lengthAdjust="spacing" textLength="93" x="914.5" y="555.1426">execute(): void</text><ellipse cx="905.5" cy="568.5234" fill="#84BE84" rx="3" ry="3" style="stroke:#038048;stroke-width:1.0;"/><text fill="#000000" font-family="sans-serif" font-size="14" lengthAdjust="spacing" textLength="76" x="914.5" y="572.752">undo(): void</text></g><!--class ListOrderCommand--><g id="elem_ListOrderCommand"><rect codeLine="95" fill="#F1F1F1" height="118.4375" id="ListOrderCommand" rx="2.5" ry="2.5" style="stroke:#181818;stroke-width:0.5;" width="261" x="1094.5" y="470.5"/><ellipse cx="1159.25" cy="486.5" fill="#ADD1B2" rx="11" ry="11" style="stroke:#181818;stroke-width:1.0;"/><path d="M1162.0156,482.375 Q1162.1719,482.1563 1162.3594,482.0469 Q1162.5469,481.9375 1162.7656,481.9375 Q1163.1406,481.9375 1163.375,482.2031 Q1163.6094,482.4531 1163.6094,483.0625 L1163.6094,484.5156 Q1163.6094,485.125 1163.375,485.3906 Q1163.1406,485.6563 1162.7656,485.6563 Q1162.4219,485.6563 1162.2188,485.4531 Q1162.0156,485.2656 1161.9063,484.75 Q1161.8594,484.3906 1161.6719,484.2031 Q1161.3438,483.8281 1160.7344,483.6094 Q1160.125,483.3906 1159.5,483.3906 Q1158.7344,483.3906 1158.0938,483.7188 Q1157.4688,484.0469 1156.9688,484.7969 Q1156.4844,485.5469 1156.4844,486.5781 L1156.4844,487.6719 Q1156.4844,488.9063 1157.375,489.7344 Q1158.2656,490.5469 1159.8594,490.5469 Q1160.7969,490.5469 1161.4531,490.2969 Q1161.8438,490.1406 1162.2656,489.7031 Q1162.5313,489.4375 1162.6719,489.3594 Q1162.8281,489.2813 1163.0313,489.2813 Q1163.3594,489.2813 1163.6094,489.5469 Q1163.875,489.7969 1163.875,490.1406 Q1163.875,490.4844 1163.5313,490.8906 Q1163.0313,491.4688 1162.2344,491.7969 Q1161.1563,492.25 1159.8594,492.25 Q1158.3438,492.25 1157.1406,491.625 Q1156.1563,491.125 1155.4688,490.0625 Q1154.7813,488.9844 1154.7813,487.7031 L1154.7813,486.5469 Q1154.7813,485.2188 1155.3906,484.0781 Q1156.0156,482.9219 1157.1094,482.3125 Q1158.2031,481.6875 1159.4375,481.6875 Q1160.1719,481.6875 1160.8125,481.8594 Q1161.4688,482.0156 1162.0156,482.375 Z " fill="#000000"/><text fill="#000000" font-family="sans-serif" font-size="14" lengthAdjust="spacing" textLength="123" x="1179.75" y="492.2285">ListOrderCommand</text><line style="stroke:#181818;stroke-width:0.5;" x1="1095.5" x2="1354.5" y1="502.5" y2="502.5"/><rect fill="none" height="6" style="stroke:#C82930;stroke-width:1.0;" width="6" x="1102.5" y="513.8047"/><text fill="#000000" font-family="sans-serif" font-size="14" lengthAdjust="spacing" textLength="75" x="1114.5" y="521.0332">sc: Scanner</text><rect fill="none" height="6" style="stroke:#C82930;stroke-width:1.0;" width="6" x="1102.5" y="531.4141"/><text fill="#000000" font-family="sans-serif" font-size="14" lengthAdjust="spacing" textLength="235" x="1114.5" y="538.6426">outstandingOrders: ArrayList&lt;Order&gt;</text><line style="stroke:#181818;stroke-width:0.5;" x1="1095.5" x2="1354.5" y1="545.7188" y2="545.7188"/><ellipse cx="1105.5" cy="560.0234" fill="#84BE84" rx="3" ry="3" style="stroke:#038048;stroke-width:1.0;"/><text fill="#000000" font-family="sans-serif" font-size="14" lengthAdjust="spacing" textLength="93" x="1114.5" y="564.252">execute(): void</text><ellipse cx="1105.5" cy="577.6328" fill="#84BE84" rx="3" ry="3" style="stroke:#038048;stroke-width:1.0;"/><text fill="#000000" font-family="sans-serif" font-size="14" lengthAdjust="spacing" textLength="76" x="1114.5" y="581.8613">undo(): void</text></g><!--class PlaceOrderCommand--><g id="elem_PlaceOrderCommand"><rect codeLine="102" fill="#F1F1F1" height="118.4375" id="PlaceOrderCommand" rx="2.5" ry="2.5" style="stroke:#181818;stroke-width:0.5;" width="184" x="1391" y="470.5"/><ellipse cx="1413.2" cy="486.5" fill="#ADD1B2" rx="11" ry="11" style="stroke:#181818;stroke-width:1.0;"/><path d="M1415.9656,482.375 Q1416.1219,482.1563 1416.3094,482.0469 Q1416.4969,481.9375 1416.7156,481.9375 Q1417.0906,481.9375 1417.325,482.2031 Q1417.5594,482.4531 1417.5594,483.0625 L1417.5594,484.5156 Q1417.5594,485.125 1417.325,485.3906 Q1417.0906,485.6563 1416.7156,485.6563 Q1416.3719,485.6563 1416.1688,485.4531 Q1415.9656,485.2656 1415.8563,484.75 Q1415.8094,484.3906 1415.6219,484.2031 Q1415.2938,483.8281 1414.6844,483.6094 Q1414.075,483.3906 1413.45,483.3906 Q1412.6844,483.3906 1412.0438,483.7188 Q1411.4188,484.0469 1410.9188,484.7969 Q1410.4344,485.5469 1410.4344,486.5781 L1410.4344,487.6719 Q1410.4344,488.9063 1411.325,489.7344 Q1412.2156,490.5469 1413.8094,490.5469 Q1414.7469,490.5469 1415.4031,490.2969 Q1415.7938,490.1406 1416.2156,489.7031 Q1416.4813,489.4375 1416.6219,489.3594 Q1416.7781,489.2813 1416.9813,489.2813 Q1417.3094,489.2813 1417.5594,489.5469 Q1417.825,489.7969 1417.825,490.1406 Q1417.825,490.4844 1417.4813,490.8906 Q1416.9813,491.4688 1416.1844,491.7969 Q1415.1063,492.25 1413.8094,492.25 Q1412.2938,492.25 1411.0906,491.625 Q1410.1063,491.125 1409.4188,490.0625 Q1408.7313,488.9844 1408.7313,487.7031 L1408.7313,486.5469 Q1408.7313,485.2188 1409.3406,484.0781 Q1409.9656,482.9219 1411.0594,482.3125 Q1412.1531,481.6875 1413.3875,481.6875 Q1414.1219,481.6875 1414.7625,481.8594 Q1415.4188,482.0156 1415.9656,482.375 Z " fill="#000000"/><text fill="#000000" font-family="sans-serif" font-size="14" lengthAdjust="spacing" textLength="136" x="1428.8" y="492.2285">PlaceOrderCommand</text><line style="stroke:#181818;stroke-width:0.5;" x1="1392" x2="1574" y1="502.5" y2="502.5"/><rect fill="none" height="6" style="stroke:#C82930;stroke-width:1.0;" width="6" x="1399" y="513.8047"/><text fill="#000000" font-family="sans-serif" font-size="14" lengthAdjust="spacing" textLength="75" x="1411" y="521.0332">sc: Scanner</text><rect fill="none" height="6" style="stroke:#C82930;stroke-width:1.0;" width="6" x="1399" y="531.4141"/><text fill="#000000" font-family="sans-serif" font-size="14" lengthAdjust="spacing" textLength="158" x="1411" y="538.6426">orders: ArrayList&lt;Order&gt;</text><line style="stroke:#181818;stroke-width:0.5;" x1="1392" x2="1574" y1="545.7188" y2="545.7188"/><ellipse cx="1402" cy="560.0234" fill="#84BE84" rx="3" ry="3" style="stroke:#038048;stroke-width:1.0;"/><text fill="#000000" font-family="sans-serif" font-size="14" lengthAdjust="spacing" textLength="93" x="1411" y="564.252">execute(): void</text><ellipse cx="1402" cy="577.6328" fill="#84BE84" rx="3" ry="3" style="stroke:#038048;stroke-width:1.0;"/><text fill="#000000" font-family="sans-serif" font-size="14" lengthAdjust="spacing" textLength="76" x="1411" y="581.8613">undo(): void</text></g><!--class CancelOrderCommand--><g id="elem_CancelOrderCommand"><rect codeLine="109" fill="#F1F1F1" height="118.4375" id="CancelOrderCommand" rx="2.5" ry="2.5" style="stroke:#181818;stroke-width:0.5;" width="184" x="1610" y="470.5"/><ellipse cx="1628.15" cy="486.5" fill="#ADD1B2" rx="11" ry="11" style="stroke:#181818;stroke-width:1.0;"/><path d="M1630.9156,482.375 Q1631.0719,482.1563 1631.2594,482.0469 Q1631.4469,481.9375 1631.6656,481.9375 Q1632.0406,481.9375 1632.275,482.2031 Q1632.5094,482.4531 1632.5094,483.0625 L1632.5094,484.5156 Q1632.5094,485.125 1632.275,485.3906 Q1632.0406,485.6563 1631.6656,485.6563 Q1631.3219,485.6563 1631.1188,485.4531 Q1630.9156,485.2656 1630.8063,484.75 Q1630.7594,484.3906 1630.5719,484.2031 Q1630.2438,483.8281 1629.6344,483.6094 Q1629.025,483.3906 1628.4,483.3906 Q1627.6344,483.3906 1626.9938,483.7188 Q1626.3688,484.0469 1625.8688,484.7969 Q1625.3844,485.5469 1625.3844,486.5781 L1625.3844,487.6719 Q1625.3844,488.9063 1626.275,489.7344 Q1627.1656,490.5469 1628.7594,490.5469 Q1629.6969,490.5469 1630.3531,490.2969 Q1630.7438,490.1406 1631.1656,489.7031 Q1631.4313,489.4375 1631.5719,489.3594 Q1631.7281,489.2813 1631.9313,489.2813 Q1632.2594,489.2813 1632.5094,489.5469 Q1632.775,489.7969 1632.775,490.1406 Q1632.775,490.4844 1632.4313,490.8906 Q1631.9313,491.4688 1631.1344,491.7969 Q1630.0563,492.25 1628.7594,492.25 Q1627.2438,492.25 1626.0406,491.625 Q1625.0563,491.125 1624.3688,490.0625 Q1623.6813,488.9844 1623.6813,487.7031 L1623.6813,486.5469 Q1623.6813,485.2188 1624.2906,484.0781 Q1624.9156,482.9219 1626.0094,482.3125 Q1627.1031,481.6875 1628.3375,481.6875 Q1629.0719,481.6875 1629.7125,481.8594 Q1630.3688,482.0156 1630.9156,482.375 Z " fill="#000000"/><text fill="#000000" font-family="sans-serif" font-size="14" lengthAdjust="spacing" textLength="145" x="1642.85" y="492.2285">CancelOrderCommand</text><line style="stroke:#181818;stroke-width:0.5;" x1="1611" x2="1793" y1="502.5" y2="502.5"/><rect fill="none" height="6" style="stroke:#C82930;stroke-width:1.0;" width="6" x="1618" y="513.8047"/><text fill="#000000" font-family="sans-serif" font-size="14" lengthAdjust="spacing" textLength="75" x="1630" y="521.0332">sc: Scanner</text><rect fill="none" height="6" style="stroke:#C82930;stroke-width:1.0;" width="6" x="1618" y="531.4141"/><text fill="#000000" font-family="sans-serif" font-size="14" lengthAdjust="spacing" textLength="158" x="1630" y="538.6426">orders: ArrayList&lt;Order&gt;</text><line style="stroke:#181818;stroke-width:0.5;" x1="1611" x2="1793" y1="545.7188" y2="545.7188"/><ellipse cx="1621" cy="560.0234" fill="#84BE84" rx="3" ry="3" style="stroke:#038048;stroke-width:1.0;"/><text fill="#000000" font-family="sans-serif" font-size="14" lengthAdjust="spacing" textLength="93" x="1630" y="564.252">execute(): void</text><ellipse cx="1621" cy="577.6328" fill="#84BE84" rx="3" ry="3" style="stroke:#038048;stroke-width:1.0;"/><text fill="#000000" font-family="sans-serif" font-size="14" lengthAdjust="spacing" textLength="76" x="1630" y="581.8613">undo(): void</text></g><!--class CompleteOrderCommand--><g id="elem_CompleteOrderCommand"><rect codeLine="116" fill="#F1F1F1" height="136.0469" id="CompleteOrderCommand" rx="2.5" ry="2.5" style="stroke:#181818;stroke-width:0.5;" width="261" x="1829.5" y="461.5"/><ellipse cx="1875.25" cy="477.5" fill="#ADD1B2" rx="11" ry="11" style="stroke:#181818;stroke-width:1.0;"/><path d="M1878.0156,473.375 Q1878.1719,473.1563 1878.3594,473.0469 Q1878.5469,472.9375 1878.7656,472.9375 Q1879.1406,472.9375 1879.375,473.2031 Q1879.6094,473.4531 1879.6094,474.0625 L1879.6094,475.5156 Q1879.6094,476.125 1879.375,476.3906 Q1879.1406,476.6563 1878.7656,476.6563 Q1878.4219,476.6563 1878.2188,476.4531 Q1878.0156,476.2656 1877.9063,475.75 Q1877.8594,475.3906 1877.6719,475.2031 Q1877.3438,474.8281 1876.7344,474.6094 Q1876.125,474.3906 1875.5,474.3906 Q1874.7344,474.3906 1874.0938,474.7188 Q1873.4688,475.0469 1872.9688,475.7969 Q1872.4844,476.5469 1872.4844,477.5781 L1872.4844,478.6719 Q1872.4844,479.9063 1873.375,480.7344 Q1874.2656,481.5469 1875.8594,481.5469 Q1876.7969,481.5469 1877.4531,481.2969 Q1877.8438,481.1406 1878.2656,480.7031 Q1878.5313,480.4375 1878.6719,480.3594 Q1878.8281,480.2813 1879.0313,480.2813 Q1879.3594,480.2813 1879.6094,480.5469 Q1879.875,480.7969 1879.875,481.1406 Q1879.875,481.4844 1879.5313,481.8906 Q1879.0313,482.4688 1878.2344,482.7969 Q1877.1563,483.25 1875.8594,483.25 Q1874.3438,483.25 1873.1406,482.625 Q1872.1563,482.125 1871.4688,481.0625 Q1870.7813,479.9844 1870.7813,478.7031 L1870.7813,477.5469 Q1870.7813,476.2188 1871.3906,475.0781 Q1872.0156,473.9219 1873.1094,473.3125 Q1874.2031,472.6875 1875.4375,472.6875 Q1876.1719,472.6875 1876.8125,472.8594 Q1877.4688,473.0156 1878.0156,473.375 Z " fill="#000000"/><text fill="#000000" font-family="sans-serif" font-size="14" lengthAdjust="spacing" textLength="161" x="1895.75" y="483.2285">CompleteOrderCommand</text><line style="stroke:#181818;stroke-width:0.5;" x1="1830.5" x2="2089.5" y1="493.5" y2="493.5"/><rect fill="none" height="6" style="stroke:#C82930;stroke-width:1.0;" width="6" x="1837.5" y="504.8047"/><text fill="#000000" font-family="sans-serif" font-size="14" lengthAdjust="spacing" textLength="75" x="1849.5" y="512.0332">sc: Scanner</text><rect fill="none" height="6" style="stroke:#C82930;stroke-width:1.0;" width="6" x="1837.5" y="522.4141"/><text fill="#000000" font-family="sans-serif" font-size="14" lengthAdjust="spacing" textLength="235" x="1849.5" y="529.6426">outstandingOrders: ArrayList&lt;Order&gt;</text><rect fill="none" height="6" style="stroke:#C82930;stroke-width:1.0;" width="6" x="1837.5" y="540.0234"/><text fill="#000000" font-family="sans-serif" font-size="14" lengthAdjust="spacing" textLength="226" x="1849.5" y="547.252">completedOrders: ArrayList&lt;Order&gt;</text><line style="stroke:#181818;stroke-width:0.5;" x1="1830.5" x2="2089.5" y1="554.3281" y2="554.3281"/><ellipse cx="1840.5" cy="568.6328" fill="#84BE84" rx="3" ry="3" style="stroke:#038048;stroke-width:1.0;"/><text fill="#000000" font-family="sans-serif" font-size="14" lengthAdjust="spacing" textLength="93" x="1849.5" y="572.8613">execute(): void</text><ellipse cx="1840.5" cy="586.2422" fill="#84BE84" rx="3" ry="3" style="stroke:#038048;stroke-width:1.0;"/><text fill="#000000" font-family="sans-serif" font-size="14" lengthAdjust="spacing" textLength="76" x="1849.5" y="590.4707">undo(): void</text></g><!--reverse link Menu to ChineseMenu--><g id="link_Menu_ChineseMenu"><path codeLine="124" d="M550.4781,615.2279 C545.1481,642.5879 542.43,656.51 537.09,683.88 " fill="none" id="Menu-backto-ChineseMenu" style="stroke:#181818;stroke-width:1.0;"/><polygon fill="none" points="553.92,597.56,544.5888,614.0806,556.3674,616.3752,553.92,597.56" style="stroke:#181818;stroke-width:1.0;"/></g><!--reverse link Menu to WesternMenu--><g id="link_Menu_WesternMenu"><path codeLine="125" d="M470.8455,608.37 C458.3055,617.64 459.76,616.01 447,624 C406.38,649.44 359.95,673.67 317.77,694 " fill="none" id="Menu-backto-WesternMenu" style="stroke:#181818;stroke-width:1.0;"/><polygon fill="none" points="485.32,597.67,467.2789,603.5452,474.4122,613.1948,485.32,597.67" style="stroke:#181818;stroke-width:1.0;"/></g><!--reverse link LunchSet to ChineseLunchSet--><g id="link_LunchSet_ChineseLunchSet"><path codeLine="126" d="M250.8737,364.6127 C264.8037,392.4127 274.51,411.77 290.58,443.85 " fill="none" id="LunchSet-backto-ChineseLunchSet" style="stroke:#181818;stroke-width:1.0;"/><polygon fill="none" points="242.81,348.52,245.5095,367.3006,256.238,361.9248,242.81,348.52" style="stroke:#181818;stroke-width:1.0;"/></g><!--reverse link LunchSet to WesternLunchSet--><g id="link_LunchSet_WesternLunchSet"><path codeLine="127" d="M185.3912,364.6401 C172.8912,389.8001 165.29,405.12 150.62,434.65 " fill="none" id="LunchSet-backto-WesternLunchSet" style="stroke:#181818;stroke-width:1.0;"/><polygon fill="none" points="193.4,348.52,180.0178,361.9705,190.7646,367.3097,193.4,348.52" style="stroke:#181818;stroke-width:1.0;"/></g><!--reverse link CommandFactory to EditMenuCommand--><g id="link_CommandFactory_EditMenuCommand"><path codeLine="128" d="M1263.9352,310.9004 C1166.5052,325.7404 1007.95,358.7 877,435 C857.41,446.42 838.89,462.8 823.5,478.66 " fill="none" id="CommandFactory-backto-EditMenuCommand" style="stroke:#181818;stroke-width:1.0;stroke-dasharray:7.0,7.0;"/><polygon fill="none" points="1281.73,308.19,1263.0318,304.9688,1264.8387,316.832,1281.73,308.19" style="stroke:#181818;stroke-width:1.0;"/></g><!--reverse link CommandFactory to ShowMenuCommand--><g id="link_CommandFactory_ShowMenuCommand"><path codeLine="129" d="M1265.365,334.3857 C1207.495,358.7957 1142.04,390.11 1077,435 C1058.61,447.69 1040.25,463.67 1024.36,478.81 " fill="none" id="CommandFactory-backto-ShowMenuCommand" style="stroke:#181818;stroke-width:1.0;stroke-dasharray:7.0,7.0;"/><polygon fill="none" points="1281.95,327.39,1263.0332,328.8573,1267.6969,339.914,1281.95,327.39" style="stroke:#181818;stroke-width:1.0;"/></g><!--reverse link CommandFactory to ListOrderCommand--><g id="link_CommandFactory_ListOrderCommand"><path codeLine="130" d="M1322.4129,355.1926 C1302.0229,391.4826 1280.68,429.44 1257.7,470.32 " fill="none" id="CommandFactory-backto-ListOrderCommand" style="stroke:#181818;stroke-width:1.0;stroke-dasharray:7.0,7.0;"/><polygon fill="none" points="1331.23,339.5,1317.182,352.2536,1327.6438,358.1317,1331.23,339.5" style="stroke:#181818;stroke-width:1.0;"/></g><!--reverse link CommandFactory to PlaceOrderCommand--><g id="link_CommandFactory_PlaceOrderCommand"><path codeLine="131" d="M1385.5871,355.1926 C1405.9771,391.4826 1427.32,429.44 1450.3,470.32 " fill="none" id="CommandFactory-backto-PlaceOrderCommand" style="stroke:#181818;stroke-width:1.0;stroke-dasharray:7.0,7.0;"/><polygon fill="none" points="1376.77,339.5,1380.3562,358.1317,1390.818,352.2536,1376.77,339.5" style="stroke:#181818;stroke-width:1.0;"/></g><!--reverse link CommandFactory to CancelOrderCommand--><g id="link_CommandFactory_CancelOrderCommand"><path codeLine="132" d="M1442.1616,343.8367 C1490.7416,369.4567 1539.51,397.36 1593,435 C1608.19,445.69 1623.77,458.07 1638.23,470.27 " fill="none" id="CommandFactory-backto-CancelOrderCommand" style="stroke:#181818;stroke-width:1.0;stroke-dasharray:7.0,7.0;"/><polygon fill="none" points="1426.24,335.44,1439.3627,349.1439,1444.9604,338.5295,1426.24,335.44" style="stroke:#181818;stroke-width:1.0;"/></g><!--reverse link CommandFactory to CompleteOrderCommand--><g id="link_CommandFactory_CompleteOrderCommand"><path codeLine="133" d="M1443.5792,317.8344 C1535.6792,338.3544 1681.33,375.7 1812,435 C1828.74,442.6 1845.84,451.83 1862.19,461.49 " fill="none" id="CommandFactory-backto-CompleteOrderCommand" style="stroke:#181818;stroke-width:1.0;stroke-dasharray:7.0,7.0;"/><polygon fill="none" points="1426.01,313.92,1442.2744,323.6908,1444.884,311.978,1426.01,313.92" style="stroke:#181818;stroke-width:1.0;"/></g><!--reverse link Order to LunchSet--><g id="link_Order_LunchSet"><path codeLine="135" d="M218,155.21 C218,187.82 218,216.05 218,247.19 " fill="none" id="Order-backto-LunchSet" style="stroke:#181818;stroke-width:1.0;"/><polygon fill="none" points="218,143.21,214,149.21,218,155.21,222,149.21,218,143.21" style="stroke:#181818;stroke-width:1.0;"/></g><!--reverse link ChineseLunchSet to ChineseMenu--><g id="link_ChineseLunchSet_ChineseMenu"><path codeLine="136" d="M414.1564,624.1906 C433.8264,646.9006 446.98,662.08 465.71,683.71 " fill="none" id="ChineseLunchSet-backto-ChineseMenu" style="stroke:#181818;stroke-width:1.0;"/><polygon fill="none" points="406.3,615.12,407.2047,622.2741,414.1564,624.1906,413.2518,617.0365,406.3,615.12" style="stroke:#181818;stroke-width:1.0;"/></g><!--reverse link WesternLunchSet to WesternMenu--><g id="link_WesternLunchSet_WesternMenu"><path codeLine="137" d="M144.363,635.2081 C152.093,655.2781 155.81,664.91 163.08,683.75 " fill="none" id="WesternLunchSet-backto-WesternMenu" style="stroke:#181818;stroke-width:1.0;"/><polygon fill="none" points="140.05,624.01,138.4738,631.0467,144.363,635.2081,145.9392,628.1714,140.05,624.01" style="stroke:#181818;stroke-width:1.0;"/></g><!--reverse link Controller to CommandFactory--><g id="link_Controller_CommandFactory"><path codeLine="138" d="M1354,173.24 C1354,205.41 1354,229.56 1354,256.46 " fill="none" id="Controller-backto-CommandFactory" style="stroke:#181818;stroke-width:1.0;"/><polygon fill="none" points="1354,161.24,1350,167.24,1354,173.24,1358,167.24,1354,161.24" style="stroke:#181818;stroke-width:1.0;"/></g><!--link MenuFactory to Menu--><g id="link_MenuFactory_Menu"><path codeLine="139" d="M567,375.1 C567,403.02 567,434.4 567,461.47 " fill="none" id="MenuFactory-Menu" style="stroke:#181818;stroke-width:1.0;"/></g><!--SRC=[nLR1RkCW4BtxAv3suchbVa0KLLebxIcxNIc7FLGz43nkqDeG0MwtIlFl2vXWm4xMbRBjpO77l3TlXY5u8vN0H25IOodHTs0jscS8VK4xGGdC46NA_iJFcDPuKyE2jqprw_kACbmVqE9-UJj3QoKeUz8RNz4Ukz0712LL9dA-9fWn45SpzCnfcSA80AnWrJAoNOFADUhudHsoh1Eus5864hpE0ZMOiYMLsu2yG9AtkqZDEGb3NiVYwGrAyIwSsNU1lQfV81K8zfzLEPO9gd1SrUC9Lzb6CyvigMs89-WqN0LhGLLsDIPmBqeGgSgqA15DuMY2WjdLKclyVTwLqumdCZRBtE2Ne7INocGhI31KarPlL7vGsKuiBM5Gry_DAPJeSx9KBfFQ92P11VV9QbIugdwqpGP4f9rNbRxvAqwmefmDipZP1aR1dUuPBbujisuZpQ4eqLUxzprjYG3rqcSoTDwZJ65arwiFZt60eokzmY69nzYqpa7ayKfe6fsaddWWAcq0Ml2cmQoCSuK_G5e5ULZNbfKy7ruNpfJWTUqBv8abqNPtskCDtYhzoKgjs5PMv_zD2FowebBDxSfDV83mPbU3Wd8ot6GKuU8iRsABp7np5ZuyzYa78PqVBaeUHnjuSkiceOCvOs8_tkFnUijVBXdFE6ADEnUmc5Ydzn3_z8FZ7yoNeLjWHg3-G3xNfnVpjfZK-jCaslTy_bOKqSZgLyCHvL-F4E_dRRoRFkJ9F9c_NL-d5s8KapJvA2Pjt57GeCb6KSFU68UDb3JBkWU9w-pxj9E_3JmnEdsNUM9vC4VjqKXB5hv6UjUU-0i0]--></g></svg>