<?xml version="1.0" encoding="us-ascii" standalone="no"?><svg xmlns="http://www.w3.org/2000/svg" xmlns:xlink="http://www.w3.org/1999/xlink" contentStyleType="text/css" height="454px" preserveAspectRatio="none" style="width:796px;height:454px;background:#FFFFFF;" version="1.1" viewBox="0 0 796 454" width="796px" zoomAndPan="magnify"><defs/><g><!--class CandyBar--><g id="elem_CandyBar"><rect codeLine="2" fill="#F1F1F1" height="65.6094" id="CandyBar" rx="2.5" ry="2.5" style="stroke:#181818;stroke-width:0.5;" width="130" x="89" y="256"/><ellipse cx="119.75" cy="272" fill="#A9DCDF" rx="11" ry="11" style="stroke:#181818;stroke-width:1.0;"/><path d="M121.9375,273.7656 L117.7969,273.7656 L117.375,274.7969 L117.7969,274.7969 Q118.4063,274.7969 118.6719,275.0313 Q118.9375,275.2656 118.9375,275.6563 Q118.9375,276.0313 118.6719,276.2656 Q118.4063,276.5 117.7969,276.5 L115.5,276.5 Q114.8906,276.5 114.6406,276.2656 Q114.375,276.0313 114.375,275.6406 Q114.375,275.2656 114.6563,275.0313 Q114.9219,274.7813 115.5469,274.7969 L118.2188,268.1406 L117.1094,268.1406 Q116.5,268.1406 116.2344,267.9063 Q115.9688,267.6719 115.9688,267.2813 Q115.9688,266.9063 116.2344,266.6719 Q116.5,266.4375 117.1094,266.4375 L120.7813,266.4375 L124.1719,274.7969 Q124.7656,274.7969 124.9531,274.9375 Q125.3438,275.2031 125.3438,275.6563 Q125.3438,276.0313 125.0781,276.2656 Q124.8281,276.5 124.2188,276.5 L121.9219,276.5 Q121.3125,276.5 121.0469,276.2656 Q120.7813,276.0313 120.7813,275.6406 Q120.7813,275.2656 121.0469,275.0313 Q121.3125,274.7969 121.9219,274.7969 L122.3438,274.7969 L121.9375,273.7656 Z M121.2188,272.0625 L119.8594,268.6875 L118.4844,272.0625 L121.2188,272.0625 Z " fill="#000000"/><text fill="#000000" font-family="sans-serif" font-size="14" font-style="italic" lengthAdjust="spacing" textLength="63" x="137.25" y="277.7285">CandyBar</text><line style="stroke:#181818;stroke-width:0.5;" x1="90" x2="218" y1="288" y2="288"/><line style="stroke:#181818;stroke-width:0.5;" x1="90" x2="218" y1="296" y2="296"/><ellipse cx="100" cy="310.3047" fill="#84BE84" rx="3" ry="3" style="stroke:#038048;stroke-width:1.0;"/><text fill="#000000" font-family="sans-serif" font-size="14" lengthAdjust="spacing" textLength="104" x="109" y="314.5332">toString(): String</text></g><!--class KitKat--><g id="elem_KitKat"><rect codeLine="6" fill="#F1F1F1" hhhhhhheight="65.6094" id="KitKat" rx="2.5" ry="2.5" style="stroke:#181818;stroke-width:0.5;" width="130" x="7" y="382"/><ellipse cx="49.45" cy="398" fill="#ADD1B2" rx="11" ry="11" style="stroke:#181818;stroke-width:1.0;"/><path d="M52.2156,393.875 Q52.3719,393.6563 52.5594,393.5469 Q52.7469,393.4375 52.9656,393.4375 Q53.3406,393.4375 53.575,393.7031 Q53.8094,393.9531 53.8094,394.5625 L53.8094,396.0156 Q53.8094,396.625 53.575,396.8906 Q53.3406,397.1563 52.9656,397.1563 Q52.6219,397.1563 52.4188,396.9531 Q52.2156,396.7656 52.1063,396.25 Q52.0594,395.8906 51.8719,395.7031 Q51.5438,395.3281 50.9344,395.1094 Q50.325,394.8906 49.7,394.8906 Q48.9344,394.8906 48.2938,395.2188 Q47.6688,395.5469 47.1688,396.2969 Q46.6844,397.0469 46.6844,398.0781 L46.6844,399.1719 Q46.6844,400.4063 47.575,401.2344 Q48.4656,402.0469 50.0594,402.0469 Q50.9969,402.0469 51.6531,401.7969 Q52.0438,401.6406 52.4656,401.2031 Q52.7313,400.9375 52.8719,400.8594 Q53.0281,400.7813 53.2313,400.7813 Q53.5594,400.7813 53.8094,401.0469 Q54.075,401.2969 54.075,401.6406 Q54.075,401.9844 53.7313,402.3906 Q53.2313,402.9688 52.4344,403.2969 Q51.3563,403.75 50.0594,403.75 Q48.5438,403.75 47.3406,403.125 Q46.3563,402.625 45.6688,401.5625 Q44.9813,400.4844 44.9813,399.2031 L44.9813,398.0469 Q44.9813,396.7188 45.5906,395.5781 Q46.2156,394.4219 47.3094,393.8125 Q48.4031,393.1875 49.6375,393.1875 Q50.3719,393.1875 51.0125,393.3594 Q51.6688,393.5156 52.2156,393.875 Z " fill="#000000"/><text fill="#000000" font-family="sans-serif" font-size="14" lengthAdjust="spacing" textLength="37" x="69.55" y="403.7285">KitKat</text><line style="stroke:#181818;stroke-width:0.5;" x1="8" x2="136" y1="414" y2="414"/><line style="stroke:#181818;stroke-width:0.5;" x1="8" x2="136" y1="422" y2="422"/><ellipse cx="18" cy="436.3047" fill="#84BE84" rx="3" ry="3" style="stroke:#038048;stroke-width:1.0;"/><text fill="#000000" font-family="sans-serif" font-size="14" lengthAdjust="spacing" textLength="104" x="27" y="440.5332">toString(): String</text></g><!--class Snickers--><g id="elem_Snickers"><rect codeLine="10" fill="#F1F1F1" height="65.6094" id="Snickers" rx="2.5" ry="2.5" style="stroke:#181818;stroke-width:0.5;" width="130" x="172" y="382"/><ellipse cx="206.8" cy="398" fill="#ADD1B2" rx="11" ry="11" style="stroke:#181818;stroke-width:1.0;"/><path d="M209.5656,393.875 Q209.7219,393.6563 209.9094,393.5469 Q210.0969,393.4375 210.3156,393.4375 Q210.6906,393.4375 210.925,393.7031 Q211.1594,393.9531 211.1594,394.5625 L211.1594,396.0156 Q211.1594,396.625 210.925,396.8906 Q210.6906,397.1563 210.3156,397.1563 Q209.9719,397.1563 209.7688,396.9531 Q209.5656,396.7656 209.4563,396.25 Q209.4094,395.8906 209.2219,395.7031 Q208.8938,395.3281 208.2844,395.1094 Q207.675,394.8906 207.05,394.8906 Q206.2844,394.8906 205.6438,395.2188 Q205.0188,395.5469 204.5188,396.2969 Q204.0344,397.0469 204.0344,398.0781 L204.0344,399.1719 Q204.0344,400.4063 204.925,401.2344 Q205.8156,402.0469 207.4094,402.0469 Q208.3469,402.0469 209.0031,401.7969 Q209.3938,401.6406 209.8156,401.2031 Q210.0813,400.9375 210.2219,400.8594 Q210.3781,400.7813 210.5813,400.7813 Q210.9094,400.7813 211.1594,401.0469 Q211.425,401.2969 211.425,401.6406 Q211.425,401.9844 211.0813,402.3906 Q210.5813,402.9688 209.7844,403.2969 Q208.7063,403.75 207.4094,403.75 Q205.8938,403.75 204.6906,403.125 Q203.7063,402.625 203.0188,401.5625 Q202.3313,400.4844 202.3313,399.2031 L202.3313,398.0469 Q202.3313,396.7188 202.9406,395.5781 Q203.5656,394.4219 204.6594,393.8125 Q205.7531,393.1875 206.9875,393.1875 Q207.7219,393.1875 208.3625,393.3594 Q209.0188,393.5156 209.5656,393.875 Z " fill="#000000"/><text fill="#000000" font-family="sans-serif" font-size="14" lengthAdjust="spacing" textLength="54" x="225.2" y="403.7285">Snickers</text><line style="stroke:#181818;stroke-width:0.5;" x1="173" x2="301" y1="414" y2="414"/><line style="stroke:#181818;stroke-width:0.5;" x1="173" x2="301" y1="422" y2="422"/><ellipse cx="183" cy="436.3047" fill="#84BE84" rx="3" ry="3" style="stroke:#038048;stroke-width:1.0;"/><text fill="#000000" font-family="sans-serif" font-size="14" lengthAdjust="spacing" textLength="104" x="192" y="440.5332">toString(): String</text></g><!--class CandyBarFactory--><g id="elem_CandyBarFactory"><rect codeLine="14" fill="#F1F1F1" height="65.6094" id="CandyBarFactory" rx="2.5" ry="2.5" style="stroke:#181818;stroke-width:0.5;" width="210" x="414" y="68.5"/><ellipse cx="459.25" cy="84.5" fill="#A9DCDF" rx="11" ry="11" style="stroke:#181818;stroke-width:1.0;"/><path d="M461.4375,86.2656 L457.2969,86.2656 L456.875,87.2969 L457.2969,87.2969 Q457.9063,87.2969 458.1719,87.5313 Q458.4375,87.7656 458.4375,88.1563 Q458.4375,88.5313 458.1719,88.7656 Q457.9063,89 457.2969,89 L455,89 Q454.3906,89 454.1406,88.7656 Q453.875,88.5313 453.875,88.1406 Q453.875,87.7656 454.1563,87.5313 Q454.4219,87.2813 455.0469,87.2969 L457.7188,80.6406 L456.6094,80.6406 Q456,80.6406 455.7344,80.4063 Q455.4688,80.1719 455.4688,79.7813 Q455.4688,79.4063 455.7344,79.1719 Q456,78.9375 456.6094,78.9375 L460.2813,78.9375 L463.6719,87.2969 Q464.2656,87.2969 464.4531,87.4375 Q464.8438,87.7031 464.8438,88.1563 Q464.8438,88.5313 464.5781,88.7656 Q464.3281,89 463.7188,89 L461.4219,89 Q460.8125,89 460.5469,88.7656 Q460.2813,88.5313 460.2813,88.1406 Q460.2813,87.7656 460.5469,87.5313 Q460.8125,87.2969 461.4219,87.2969 L461.8438,87.2969 L461.4375,86.2656 Z M460.7188,84.5625 L459.3594,81.1875 L457.9844,84.5625 L460.7188,84.5625 Z " fill="#000000"/><text fill="#000000" font-family="sans-serif" font-size="14" font-style="italic" lengthAdjust="spacing" textLength="111" x="479.75" y="90.2285">CandyBarFactory</text><line style="stroke:#181818;stroke-width:0.5;" x1="415" x2="623" y1="100.5" y2="100.5"/><line style="stroke:#181818;stroke-width:0.5;" x1="415" x2="623" y1="108.5" y2="108.5"/><ellipse cx="425" cy="122.8047" fill="#84BE84" rx="3" ry="3" style="stroke:#038048;stroke-width:1.0;"/><text fill="#000000" font-family="sans-serif" font-size="14" lengthAdjust="spacing" textLength="184" x="434" y="127.0332">createCandyBar(): CandyBar</text></g><!--class KitKatFactory--><g id="elem_KitKatFactory"><rect codeLine="18" fill="#F1F1F1" height="65.6094" id="KitKatFactory" rx="2.5" ry="2.5" style="stroke:#181818;stroke-width:0.5;" width="210" x="334" y="256"/><ellipse cx="392.25" cy="272" fill="#ADD1B2" rx="11" ry="11" style="stroke:#181818;stroke-width:1.0;"/><path d="M395.0156,267.875 Q395.1719,267.6563 395.3594,267.5469 Q395.5469,267.4375 395.7656,267.4375 Q396.1406,267.4375 396.375,267.7031 Q396.6094,267.9531 396.6094,268.5625 L396.6094,270.0156 Q396.6094,270.625 396.375,270.8906 Q396.1406,271.1563 395.7656,271.1563 Q395.4219,271.1563 395.2188,270.9531 Q395.0156,270.7656 394.9063,270.25 Q394.8594,269.8906 394.6719,269.7031 Q394.3438,269.3281 393.7344,269.1094 Q393.125,268.8906 392.5,268.8906 Q391.7344,268.8906 391.0938,269.2188 Q390.4688,269.5469 389.9688,270.2969 Q389.4844,271.0469 389.4844,272.0781 L389.4844,273.1719 Q389.4844,274.4063 390.375,275.2344 Q391.2656,276.0469 392.8594,276.0469 Q393.7969,276.0469 394.4531,275.7969 Q394.8438,275.6406 395.2656,275.2031 Q395.5313,274.9375 395.6719,274.8594 Q395.8281,274.7813 396.0313,274.7813 Q396.3594,274.7813 396.6094,275.0469 Q396.875,275.2969 396.875,275.6406 Q396.875,275.9844 396.5313,276.3906 Q396.0313,276.9688 395.2344,277.2969 Q394.1563,277.75 392.8594,277.75 Q391.3438,277.75 390.1406,277.125 Q389.1563,276.625 388.4688,275.5625 Q387.7813,274.4844 387.7813,273.2031 L387.7813,272.0469 Q387.7813,270.7188 388.3906,269.5781 Q389.0156,268.4219 390.1094,267.8125 Q391.2031,267.1875 392.4375,267.1875 Q393.1719,267.1875 393.8125,267.3594 Q394.4688,267.5156 395.0156,267.875 Z " fill="#000000"/><text fill="#000000" font-family="sans-serif" font-size="14" lengthAdjust="spacing" textLength="85" x="412.75" y="277.7285">KitKatFactory</text><line style="stroke:#181818;stroke-width:0.5;" x1="335" x2="543" y1="288" y2="288"/><line style="stroke:#181818;stroke-width:0.5;" x1="335" x2="543" y1="296" y2="296"/><ellipse cx="345" cy="310.3047" fill="#84BE84" rx="3" ry="3" style="stroke:#038048;stroke-width:1.0;"/><text fill="#000000" font-family="sans-serif" font-size="14" lengthAdjust="spacing" textLength="184" x="354" y="314.5332">createCandyBar(): CandyBar</text></g><!--class SnickersFactory--><g id="elem_SnickersFactory"><rect codeLine="22" fill="#F1F1F1" height="65.6094" id="SnickersFactory" rx="2.5" ry="2.5" style="stroke:#181818;stroke-width:0.5;" width="210" x="579" y="256"/><ellipse cx="628.75" cy="272" fill="#ADD1B2" rx="11" ry="11" style="stroke:#181818;stroke-width:1.0;"/><path d="M631.5156,267.875 Q631.6719,267.6563 631.8594,267.5469 Q632.0469,267.4375 632.2656,267.4375 Q632.6406,267.4375 632.875,267.7031 Q633.1094,267.9531 633.1094,268.5625 L633.1094,270.0156 Q633.1094,270.625 632.875,270.8906 Q632.6406,271.1563 632.2656,271.1563 Q631.9219,271.1563 631.7188,270.9531 Q631.5156,270.7656 631.4063,270.25 Q631.3594,269.8906 631.1719,269.7031 Q630.8438,269.3281 630.2344,269.1094 Q629.625,268.8906 629,268.8906 Q628.2344,268.8906 627.5938,269.2188 Q626.9688,269.5469 626.4688,270.2969 Q625.9844,271.0469 625.9844,272.0781 L625.9844,273.1719 Q625.9844,274.4063 626.875,275.2344 Q627.7656,276.0469 629.3594,276.0469 Q630.2969,276.0469 630.9531,275.7969 Q631.3438,275.6406 631.7656,275.2031 Q632.0313,274.9375 632.1719,274.8594 Q632.3281,274.7813 632.5313,274.7813 Q632.8594,274.7813 633.1094,275.0469 Q633.375,275.2969 633.375,275.6406 Q633.375,275.9844 633.0313,276.3906 Q632.5313,276.9688 631.7344,277.2969 Q630.6563,277.75 629.3594,277.75 Q627.8438,277.75 626.6406,277.125 Q625.6563,276.625 624.9688,275.5625 Q624.2813,274.4844 624.2813,273.2031 L624.2813,272.0469 Q624.2813,270.7188 624.8906,269.5781 Q625.5156,268.4219 626.6094,267.8125 Q627.7031,267.1875 628.9375,267.1875 Q629.6719,267.1875 630.3125,267.3594 Q630.9688,267.5156 631.5156,267.875 Z " fill="#000000"/><text fill="#000000" font-family="sans-serif" font-size="14" lengthAdjust="spacing" textLength="102" x="649.25" y="277.7285">SnickersFactory</text><line style="stroke:#181818;stroke-width:0.5;" x1="580" x2="788" y1="288" y2="288"/><line style="stroke:#181818;stroke-width:0.5;" x1="580" x2="788" y1="296" y2="296"/><ellipse cx="590" cy="310.3047" fill="#84BE84" rx="3" ry="3" style="stroke:#038048;stroke-width:1.0;"/><text fill="#000000" font-family="sans-serif" font-size="14" lengthAdjust="spacing" textLength="184" x="599" y="314.5332">createCandyBar(): CandyBar</text></g><!--class CandyBarBin--><g id="elem_CandyBarBin"><rect codeLine="26" fill="#F1F1F1" height="188.875" id="CandyBarBin" rx="2.5" ry="2.5" style="stroke:#181818;stroke-width:0.5;" width="281" x="13.5" y="7"/><ellipse cx="108.25" cy="23" fill="#ADD1B2" rx="11" ry="11" style="stroke:#181818;stroke-width:1.0;"/><path d="M111.0156,18.875 Q111.1719,18.6563 111.3594,18.5469 Q111.5469,18.4375 111.7656,18.4375 Q112.1406,18.4375 112.375,18.7031 Q112.6094,18.9531 112.6094,19.5625 L112.6094,21.0156 Q112.6094,21.625 112.375,21.8906 Q112.1406,22.1563 111.7656,22.1563 Q111.4219,22.1563 111.2188,21.9531 Q111.0156,21.7656 110.9063,21.25 Q110.8594,20.8906 110.6719,20.7031 Q110.3438,20.3281 109.7344,20.1094 Q109.125,19.8906 108.5,19.8906 Q107.7344,19.8906 107.0938,20.2188 Q106.4688,20.5469 105.9688,21.2969 Q105.4844,22.0469 105.4844,23.0781 L105.4844,24.1719 Q105.4844,25.4063 106.375,26.2344 Q107.2656,27.0469 108.8594,27.0469 Q109.7969,27.0469 110.4531,26.7969 Q110.8438,26.6406 111.2656,26.2031 Q111.5313,25.9375 111.6719,25.8594 Q111.8281,25.7813 112.0313,25.7813 Q112.3594,25.7813 112.6094,26.0469 Q112.875,26.2969 112.875,26.6406 Q112.875,26.9844 112.5313,27.3906 Q112.0313,27.9688 111.2344,28.2969 Q110.1563,28.75 108.8594,28.75 Q107.3438,28.75 106.1406,28.125 Q105.1563,27.625 104.4688,26.5625 Q103.7813,25.4844 103.7813,24.2031 L103.7813,23.0469 Q103.7813,21.7188 104.3906,20.5781 Q105.0156,19.4219 106.1094,18.8125 Q107.2031,18.1875 108.4375,18.1875 Q109.1719,18.1875 109.8125,18.3594 Q110.4688,18.5156 111.0156,18.875 Z " fill="#000000"/><text fill="#000000" font-family="sans-serif" font-size="14" lengthAdjust="spacing" textLength="83" x="128.75" y="28.7285">CandyBarBin</text><line style="stroke:#181818;stroke-width:0.5;" x1="14.5" x2="293.5" y1="39" y2="39"/><rect fill="none" height="6" style="stroke:#C82930;stroke-width:1.0;" width="6" x="21.5" y="50.3047"/><text fill="#000000" font-family="sans-serif" font-size="14" lengthAdjust="spacing" textLength="162" x="33.5" y="57.5332">factory: CandyBarFactory</text><rect fill="none" height="6" style="stroke:#C82930;stroke-width:1.0;" width="6" x="21.5" y="67.9141"/><text fill="#000000" font-family="sans-serif" font-size="14" lengthAdjust="spacing" textLength="116" x="33.5" y="75.1426">candyBars: Vector</text><rect fill="none" height="6" style="stroke:#C82930;stroke-width:1.0;" width="6" x="21.5" y="85.5234"/><text fill="#000000" font-family="sans-serif" font-size="14" lengthAdjust="spacing" textLength="117" x="33.5" y="92.752">LowStockLevel: int</text><line style="stroke:#181818;stroke-width:0.5;" x1="14.5" x2="293.5" y1="99.8281" y2="99.8281"/><ellipse cx="24.5" cy="114.1328" fill="#84BE84" rx="3" ry="3" style="stroke:#038048;stroke-width:1.0;"/><text fill="#000000" font-family="sans-serif" font-size="14" lengthAdjust="spacing" textLength="255" x="33.5" y="118.3613">CandyBarBin(factory: CandyBarFactory)</text><ellipse cx="24.5" cy="131.7422" fill="#84BE84" rx="3" ry="3" style="stroke:#038048;stroke-width:1.0;"/><text fill="#000000" font-family="sans-serif" font-size="14" lengthAdjust="spacing" textLength="90" x="33.5" y="135.9707">restock(): void</text><ellipse cx="24.5" cy="149.3516" fill="#84BE84" rx="3" ry="3" style="stroke:#038048;stroke-width:1.0;"/><text fill="#000000" font-family="sans-serif" font-size="14" lengthAdjust="spacing" textLength="154" x="33.5" y="153.5801">add(cb: CandyBar): void</text><ellipse cx="24.5" cy="166.9609" fill="#84BE84" rx="3" ry="3" style="stroke:#038048;stroke-width:1.0;"/><text fill="#000000" font-family="sans-serif" font-size="14" lengthAdjust="spacing" textLength="147" x="33.5" y="171.1895">getAmountInStock(): int</text><ellipse cx="24.5" cy="184.5703" fill="#84BE84" rx="3" ry="3" style="stroke:#038048;stroke-width:1.0;"/><text fill="#000000" font-family="sans-serif" font-size="14" lengthAdjust="spacing" textLength="104" x="33.5" y="188.7988">toString(): String</text></g><!--reverse link CandyBar to KitKat--><g id="link_CandyBar_KitKat"><path d="M110.4046,336.5651 C96.3746,354.9351 92.14,363.56 81.9,381.91 " fill="none" id="CandyBar-backto-KitKat" style="stroke:#181818;stroke-width:1.0;"/><polygon fill="none" points="121.33,322.26,105.6362,332.9233,115.1729,340.2069,121.33,322.26" style="stroke:#181818;stroke-width:1.0;"/></g><!--reverse link CandyBar to KitKat--><g id="link_CandyBar_KitKat"><path codeLine="39" d="M135.9683,338.0114 C125.8083,356.3814 119.35,363.56 105.22,381.91 " fill="none" id="CandyBar-backto-KitKat-1" style="stroke:#181818;stroke-width:1.0;"/><polygon fill="none" points="144.68,322.26,130.7178,335.1075,141.2188,340.9153,144.68,322.26" style="stroke:#181818;stroke-width:1.0;"/></g><!--reverse link CandyBar to Snickers--><g id="link_CandyBar_Snickers"><path d="M173.1244,337.9203 C183.5344,356.2903 190.02,363.56 204.19,381.91 " fill="none" id="CandyBar-backto-Snickers" style="stroke:#181818;stroke-width:1.0;"/><polygon fill="none" points="164.25,322.26,167.9043,340.8784,178.3445,334.9621,164.25,322.26" style="stroke:#181818;stroke-width:1.0;"/></g><!--reverse link CandyBar to Snickers--><g id="link_CandyBar_Snickers"><path codeLine="40" d="M198.652,336.4675 C212.942,354.8375 217.24,363.56 227.51,381.91 " fill="none" id="CandyBar-backto-Snickers-1" style="stroke:#181818;stroke-width:1.0;"/><polygon fill="none" points="187.6,322.26,193.9162,340.1515,203.3878,332.7835,187.6,322.26" style="stroke:#181818;stroke-width:1.0;"/></g><!--reverse link CandyBarFactory to KitKatFactory--><g id="link_CandyBarFactory_KitKatFactory"><path d="M486.5504,150.6391 C468.1704,184.5891 453.85,221.83 442.97,255.75 " fill="none" id="CandyBarFactory-backto-KitKatFactory" style="stroke:#181818;stroke-width:1.0;"/><polygon fill="none" points="495.12,134.81,481.274,147.7826,491.8267,153.4957,495.12,134.81" style="stroke:#181818;stroke-width:1.0;"/></g><!--reverse link CandyBarFactory to KitKatFactory--><g id="link_CandyBarFactory_KitKatFactory"><path codeLine="37" d="M510.1985,151.9804 C499.5185,185.9304 482.03,221.83 463.44,255.75 " fill="none" id="CandyBarFactory-backto-KitKatFactory-1" style="stroke:#181818;stroke-width:1.0;"/><polygon fill="none" points="515.6,134.81,504.475,150.1799,515.922,153.7809,515.6,134.81" style="stroke:#181818;stroke-width:1.0;"/></g><!--reverse link CandyBarFactory to SnickersFactory--><g id="link_CandyBarFactory_SnickersFactory"><path d="M548.8551,149.0073 C575.3151,182.9573 611.46,221.83 645.37,255.75 " fill="none" id="CandyBarFactory-backto-SnickersFactory" style="stroke:#181818;stroke-width:1.0;"/><polygon fill="none" points="537.79,134.81,544.1227,152.6957,553.5875,145.3189,537.79,134.81" style="stroke:#181818;stroke-width:1.0;"/></g><!--reverse link CandyBarFactory to SnickersFactory--><g id="link_CandyBarFactory_SnickersFactory"><path codeLine="38" d="M571.0352,147.5005 C605.1852,181.4505 639.63,221.83 665.84,255.75 " fill="none" id="CandyBarFactory-backto-SnickersFactory-1" style="stroke:#181818;stroke-width:1.0;"/><polygon fill="none" points="558.27,134.81,566.8051,151.7556,575.2654,143.2454,558.27,134.81" style="stroke:#181818;stroke-width:1.0;"/></g><!--reverse link CandyBarBin to CandyBar--><g id="link_CandyBarBin_CandyBar"><path codeLine="41" d="M154,208.07 C154,229.5 154,238.87 154,255.6 " fill="none" id="CandyBarBin-backto-CandyBar" style="stroke:#181818;stroke-width:1.0;"/><polygon fill="#181818" points="154,196.07,150,202.07,154,208.07,158,202.07,154,196.07" style="stroke:#181818;stroke-width:1.0;"/><text fill="#000000" font-family="sans-serif" font-size="13" lengthAdjust="spacing" textLength="7" x="146.732" y="217.4364">1</text><text fill="#000000" font-family="sans-serif" font-size="13" lengthAdjust="spacing" textLength="20" x="132.0313" y="245.0176">0..*</text></g><!--SRC=[hL71Ri8m3BtdAwoU2gXeN2ikC6dI1BTAkvl4e0X8fCHZGzl-VQsQq1AL0uYShFVydbzit7XsA1da0Rs7LpJgl4G7FmBgDm6s5JjjTlceXBOIVqAqpIlDAsIWRoQZxjHMHiizEN-l6eVpljMGTUUBM3f2fiWs5h5EuqTbckCHn_YfPtf6PAbDq1MmRNtAr3ZGCg2-X0zgY82lxLV5LkxNTA932TfmoD6RaT_o7eLUHxxnQCAUh5O1HQLokUb4r-oEU76qduRVJHN5tVJXGwSxc_yMnVN9XbkI6roQ-WO962MYl-jibi6u9hENwNISTOVv1m00]--></g></svg>