<?xml version="1.0" encoding="us-ascii" standalone="no"?><svg xmlns="http://www.w3.org/2000/svg" xmlns:xlink="http://www.w3.org/1999/xlink" contentStyleType="text/css" height="824px" preserveAspectRatio="none" style="width:629px;height:824px;background:#FFFFFF;" version="1.1" viewBox="0 0 629 824" width="629px" zoomAndPan="magnify"><defs/><g><!--class Hero--><g id="elem_Hero"><rect codeLine="2" fill="#F1F1F1" height="294.5313" id="Hero" rx="2.5" ry="2.5" style="stroke:#181818;stroke-width:0.5;" width="271" x="177.5" y="309"/><ellipse cx="293.75" cy="325" fill="#ADD1B2" rx="11" ry="11" style="stroke:#181818;stroke-width:1.0;"/><path d="M296.5156,320.875 Q296.6719,320.6563 296.8594,320.5469 Q297.0469,320.4375 297.2656,320.4375 Q297.6406,320.4375 297.875,320.7031 Q298.1094,320.9531 298.1094,321.5625 L298.1094,323.0156 Q298.1094,323.625 297.875,323.8906 Q297.6406,324.1563 297.2656,324.1563 Q296.9219,324.1563 296.7188,323.9531 Q296.5156,323.7656 296.4063,323.25 Q296.3594,322.8906 296.1719,322.7031 Q295.8438,322.3281 295.2344,322.1094 Q294.625,321.8906 294,321.8906 Q293.2344,321.8906 292.5938,322.2188 Q291.9688,322.5469 291.4688,323.2969 Q290.9844,324.0469 290.9844,325.0781 L290.9844,326.1719 Q290.9844,327.4063 291.875,328.2344 Q292.7656,329.0469 294.3594,329.0469 Q295.2969,329.0469 295.9531,328.7969 Q296.3438,328.6406 296.7656,328.2031 Q297.0313,327.9375 297.1719,327.8594 Q297.3281,327.7813 297.5313,327.7813 Q297.8594,327.7813 298.1094,328.0469 Q298.375,328.2969 298.375,328.6406 Q298.375,328.9844 298.0313,329.3906 Q297.5313,329.9688 296.7344,330.2969 Q295.6563,330.75 294.3594,330.75 Q292.8438,330.75 291.6406,330.125 Q290.6563,329.625 289.9688,328.5625 Q289.2813,327.4844 289.2813,326.2031 L289.2813,325.0469 Q289.2813,323.7188 289.8906,322.5781 Q290.5156,321.4219 291.6094,320.8125 Q292.7031,320.1875 293.9375,320.1875 Q294.6719,320.1875 295.3125,320.3594 Q295.9688,320.5156 296.5156,320.875 Z " fill="#000000"/><text fill="#000000" font-family="sans-serif" font-size="14" lengthAdjust="spacing" textLength="30" x="314.25" y="330.7285">Hero</text><line style="stroke:#181818;stroke-width:0.5;" x1="178.5" x2="447.5" y1="341" y2="341"/><rect fill="none" height="6" style="stroke:#C82930;stroke-width:1.0;" width="6" x="185.5" y="352.3047"/><text fill="#000000" font-family="sans-serif" font-size="14" lengthAdjust="spacing" textLength="87" x="197.5" y="359.5332">heroID: String</text><rect fill="none" height="6" style="stroke:#C82930;stroke-width:1.0;" width="6" x="185.5" y="369.9141"/><text fill="#000000" font-family="sans-serif" font-size="14" lengthAdjust="spacing" textLength="110" x="197.5" y="377.1426">heroName: String</text><rect fill="none" height="6" style="stroke:#C82930;stroke-width:1.0;" width="6" x="185.5" y="387.5234"/><text fill="#000000" font-family="sans-serif" font-size="14" lengthAdjust="spacing" textLength="39" x="197.5" y="394.752">hp: int</text><rect fill="none" height="6" style="stroke:#C82930;stroke-width:1.0;" width="6" x="185.5" y="405.1328"/><text fill="#000000" font-family="sans-serif" font-size="14" lengthAdjust="spacing" textLength="74" x="197.5" y="412.3613">damage: int</text><line style="stroke:#181818;stroke-width:0.5;" x1="178.5" x2="447.5" y1="419.4375" y2="419.4375"/><ellipse cx="188.5" cy="433.7422" fill="#84BE84" rx="3" ry="3" style="stroke:#038048;stroke-width:1.0;"/><text fill="#000000" font-family="sans-serif" font-size="14" lengthAdjust="spacing" textLength="245" x="197.5" y="437.9707">Hero(heroID: String, heroName: String)</text><ellipse cx="188.5" cy="451.3516" fill="#84BE84" rx="3" ry="3" style="stroke:#038048;stroke-width:1.0;"/><text fill="#000000" font-family="sans-serif" font-size="14" lengthAdjust="spacing" textLength="118" x="197.5" y="455.5801">getHeroID(): String</text><ellipse cx="188.5" cy="468.9609" fill="#84BE84" rx="3" ry="3" style="stroke:#038048;stroke-width:1.0;"/><text fill="#000000" font-family="sans-serif" font-size="14" lengthAdjust="spacing" textLength="141" x="197.5" y="473.1895">getHeroName(): String</text><ellipse cx="188.5" cy="486.5703" fill="#84BE84" rx="3" ry="3" style="stroke:#038048;stroke-width:1.0;"/><text fill="#000000" font-family="sans-serif" font-size="14" lengthAdjust="spacing" textLength="239" x="197.5" y="490.7988">setHeroName(heroName: String): void</text><ellipse cx="188.5" cy="504.1797" fill="#84BE84" rx="3" ry="3" style="stroke:#038048;stroke-width:1.0;"/><text fill="#000000" font-family="sans-serif" font-size="14" lengthAdjust="spacing" textLength="70" x="197.5" y="508.4082">getHp(): int</text><ellipse cx="188.5" cy="521.7891" fill="#84BE84" rx="3" ry="3" style="stroke:#038048;stroke-width:1.0;"/><text fill="#000000" font-family="sans-serif" font-size="14" lengthAdjust="spacing" textLength="119" x="197.5" y="526.0176">setHp(hp: int): void</text><ellipse cx="188.5" cy="539.3984" fill="#84BE84" rx="3" ry="3" style="stroke:#038048;stroke-width:1.0;"/><text fill="#000000" font-family="sans-serif" font-size="14" lengthAdjust="spacing" textLength="106" x="197.5" y="543.627">getDamage(): int</text><ellipse cx="188.5" cy="557.0078" fill="#84BE84" rx="3" ry="3" style="stroke:#038048;stroke-width:1.0;"/><text fill="#000000" font-family="sans-serif" font-size="14" lengthAdjust="spacing" textLength="190" x="197.5" y="561.2363">setDamage(damage: int): void</text><ellipse cx="188.5" cy="574.6172" fill="#84BE84" rx="3" ry="3" style="stroke:#038048;stroke-width:1.0;"/><text fill="#000000" font-family="sans-serif" font-size="14" lengthAdjust="spacing" textLength="90" x="197.5" y="578.8457">callSkill(): void</text><ellipse cx="188.5" cy="592.2266" fill="#84BE84" rx="3" ry="3" style="stroke:#038048;stroke-width:1.0;"/><text fill="#000000" font-family="sans-serif" font-size="14" lengthAdjust="spacing" textLength="146" x="197.5" y="596.4551">showHeroStatus(): void</text></g><!--class Warrior--><g id="elem_Warrior"><rect codeLine="19" fill="#F1F1F1" height="153.6563" id="Warrior" rx="2.5" ry="2.5" style="stroke:#181818;stroke-width:0.5;" width="288" x="7" y="664"/><ellipse cx="123.25" cy="680" fill="#ADD1B2" rx="11" ry="11" style="stroke:#181818;stroke-width:1.0;"/><path d="M126.0156,675.875 Q126.1719,675.6563 126.3594,675.5469 Q126.5469,675.4375 126.7656,675.4375 Q127.1406,675.4375 127.375,675.7031 Q127.6094,675.9531 127.6094,676.5625 L127.6094,678.0156 Q127.6094,678.625 127.375,678.8906 Q127.1406,679.1563 126.7656,679.1563 Q126.4219,679.1563 126.2188,678.9531 Q126.0156,678.7656 125.9063,678.25 Q125.8594,677.8906 125.6719,677.7031 Q125.3438,677.3281 124.7344,677.1094 Q124.125,676.8906 123.5,676.8906 Q122.7344,676.8906 122.0938,677.2188 Q121.4688,677.5469 120.9688,678.2969 Q120.4844,679.0469 120.4844,680.0781 L120.4844,681.1719 Q120.4844,682.4063 121.375,683.2344 Q122.2656,684.0469 123.8594,684.0469 Q124.7969,684.0469 125.4531,683.7969 Q125.8438,683.6406 126.2656,683.2031 Q126.5313,682.9375 126.6719,682.8594 Q126.8281,682.7813 127.0313,682.7813 Q127.3594,682.7813 127.6094,683.0469 Q127.875,683.2969 127.875,683.6406 Q127.875,683.9844 127.5313,684.3906 Q127.0313,684.9688 126.2344,685.2969 Q125.1563,685.75 123.8594,685.75 Q122.3438,685.75 121.1406,685.125 Q120.1563,684.625 119.4688,683.5625 Q118.7813,682.4844 118.7813,681.2031 L118.7813,680.0469 Q118.7813,678.7188 119.3906,677.5781 Q120.0156,676.4219 121.1094,675.8125 Q122.2031,675.1875 123.4375,675.1875 Q124.1719,675.1875 124.8125,675.3594 Q125.4688,675.5156 126.0156,675.875 Z " fill="#000000"/><text fill="#000000" font-family="sans-serif" font-size="14" lengthAdjust="spacing" textLength="47" x="143.75" y="685.7285">Warrior</text><line style="stroke:#181818;stroke-width:0.5;" x1="8" x2="294" y1="696" y2="696"/><rect fill="none" height="6" style="stroke:#C82930;stroke-width:1.0;" width="6" x="15" y="707.3047"/><text fill="#000000" font-family="sans-serif" font-size="14" lengthAdjust="spacing" textLength="106" x="27" y="714.5332">defencePoint: int</text><line style="stroke:#181818;stroke-width:0.5;" x1="8" x2="294" y1="721.6094" y2="721.6094"/><ellipse cx="18" cy="735.9141" fill="#84BE84" rx="3" ry="3" style="stroke:#038048;stroke-width:1.0;"/><text fill="#000000" font-family="sans-serif" font-size="14" lengthAdjust="spacing" textLength="262" x="27" y="740.1426">Warrior(heroID: String, heroName: String)</text><ellipse cx="18" cy="753.5234" fill="#84BE84" rx="3" ry="3" style="stroke:#038048;stroke-width:1.0;"/><text fill="#000000" font-family="sans-serif" font-size="14" lengthAdjust="spacing" textLength="138" x="27" y="757.752">getDefencePoint(): int</text><ellipse cx="18" cy="771.1328" fill="#84BE84" rx="3" ry="3" style="stroke:#038048;stroke-width:1.0;"/><text fill="#000000" font-family="sans-serif" font-size="14" lengthAdjust="spacing" textLength="254" x="27" y="775.3613">setDefencePoint(defencePoint: int): void</text><ellipse cx="18" cy="788.7422" fill="#84BE84" rx="3" ry="3" style="stroke:#038048;stroke-width:1.0;"/><text fill="#000000" font-family="sans-serif" font-size="14" lengthAdjust="spacing" textLength="90" x="27" y="792.9707">callSkill(): void</text><ellipse cx="18" cy="806.3516" fill="#84BE84" rx="3" ry="3" style="stroke:#038048;stroke-width:1.0;"/><text fill="#000000" font-family="sans-serif" font-size="14" lengthAdjust="spacing" textLength="146" x="27" y="810.5801">showHeroStatus(): void</text></g><!--class Warlock--><g id="elem_Warlock"><rect codeLine="28" fill="#F1F1F1" height="153.6563" id="Warlock" rx="2.5" ry="2.5" style="stroke:#181818;stroke-width:0.5;" width="292" x="330" y="664"/><ellipse cx="446.25" cy="680" fill="#ADD1B2" rx="11" ry="11" style="stroke:#181818;stroke-width:1.0;"/><path d="M449.0156,675.875 Q449.1719,675.6563 449.3594,675.5469 Q449.5469,675.4375 449.7656,675.4375 Q450.1406,675.4375 450.375,675.7031 Q450.6094,675.9531 450.6094,676.5625 L450.6094,678.0156 Q450.6094,678.625 450.375,678.8906 Q450.1406,679.1563 449.7656,679.1563 Q449.4219,679.1563 449.2188,678.9531 Q449.0156,678.7656 448.9063,678.25 Q448.8594,677.8906 448.6719,677.7031 Q448.3438,677.3281 447.7344,677.1094 Q447.125,676.8906 446.5,676.8906 Q445.7344,676.8906 445.0938,677.2188 Q444.4688,677.5469 443.9688,678.2969 Q443.4844,679.0469 443.4844,680.0781 L443.4844,681.1719 Q443.4844,682.4063 444.375,683.2344 Q445.2656,684.0469 446.8594,684.0469 Q447.7969,684.0469 448.4531,683.7969 Q448.8438,683.6406 449.2656,683.2031 Q449.5313,682.9375 449.6719,682.8594 Q449.8281,682.7813 450.0313,682.7813 Q450.3594,682.7813 450.6094,683.0469 Q450.875,683.2969 450.875,683.6406 Q450.875,683.9844 450.5313,684.3906 Q450.0313,684.9688 449.2344,685.2969 Q448.1563,685.75 446.8594,685.75 Q445.3438,685.75 444.1406,685.125 Q443.1563,684.625 442.4688,683.5625 Q441.7813,682.4844 441.7813,681.2031 L441.7813,680.0469 Q441.7813,678.7188 442.3906,677.5781 Q443.0156,676.4219 444.1094,675.8125 Q445.2031,675.1875 446.4375,675.1875 Q447.1719,675.1875 447.8125,675.3594 Q448.4688,675.5156 449.0156,675.875 Z " fill="#000000"/><text fill="#000000" font-family="sans-serif" font-size="14" lengthAdjust="spacing" textLength="51" x="466.75" y="685.7285">Warlock</text><line style="stroke:#181818;stroke-width:0.5;" x1="331" x2="621" y1="696" y2="696"/><rect fill="none" height="6" style="stroke:#C82930;stroke-width:1.0;" width="6" x="338" y="707.3047"/><text fill="#000000" font-family="sans-serif" font-size="14" lengthAdjust="spacing" textLength="42" x="350" y="714.5332">mp: int</text><line style="stroke:#181818;stroke-width:0.5;" x1="331" x2="621" y1="721.6094" y2="721.6094"/><ellipse cx="341" cy="735.9141" fill="#84BE84" rx="3" ry="3" style="stroke:#038048;stroke-width:1.0;"/><text fill="#000000" font-family="sans-serif" font-size="14" lengthAdjust="spacing" textLength="266" x="350" y="740.1426">Warlock(heroID: String, heroName: String)</text><ellipse cx="341" cy="753.5234" fill="#84BE84" rx="3" ry="3" style="stroke:#038048;stroke-width:1.0;"/><text fill="#000000" font-family="sans-serif" font-size="14" lengthAdjust="spacing" textLength="72" x="350" y="757.752">getMp(): int</text><ellipse cx="341" cy="771.1328" fill="#84BE84" rx="3" ry="3" style="stroke:#038048;stroke-width:1.0;"/><text fill="#000000" font-family="sans-serif" font-size="14" lengthAdjust="spacing" textLength="124" x="350" y="775.3613">setMp(mp: int): void</text><ellipse cx="341" cy="788.7422" fill="#84BE84" rx="3" ry="3" style="stroke:#038048;stroke-width:1.0;"/><text fill="#000000" font-family="sans-serif" font-size="14" lengthAdjust="spacing" textLength="90" x="350" y="792.9707">callSkill(): void</text><ellipse cx="341" cy="806.3516" fill="#84BE84" rx="3" ry="3" style="stroke:#038048;stroke-width:1.0;"/><text fill="#000000" font-family="sans-serif" font-size="14" lengthAdjust="spacing" textLength="146" x="350" y="810.5801">showHeroStatus(): void</text></g><!--class Player--><g id="elem_Player"><rect codeLine="37" fill="#F1F1F1" height="241.7031" id="Player" rx="2.5" ry="2.5" style="stroke:#181818;stroke-width:0.5;" width="301" x="162.5" y="7"/><ellipse cx="288.75" cy="23" fill="#ADD1B2" rx="11" ry="11" style="stroke:#181818;stroke-width:1.0;"/><path d="M291.5156,18.875 Q291.6719,18.6563 291.8594,18.5469 Q292.0469,18.4375 292.2656,18.4375 Q292.6406,18.4375 292.875,18.7031 Q293.1094,18.9531 293.1094,19.5625 L293.1094,21.0156 Q293.1094,21.625 292.875,21.8906 Q292.6406,22.1563 292.2656,22.1563 Q291.9219,22.1563 291.7188,21.9531 Q291.5156,21.7656 291.4063,21.25 Q291.3594,20.8906 291.1719,20.7031 Q290.8438,20.3281 290.2344,20.1094 Q289.625,19.8906 289,19.8906 Q288.2344,19.8906 287.5938,20.2188 Q286.9688,20.5469 286.4688,21.2969 Q285.9844,22.0469 285.9844,23.0781 L285.9844,24.1719 Q285.9844,25.4063 286.875,26.2344 Q287.7656,27.0469 289.3594,27.0469 Q290.2969,27.0469 290.9531,26.7969 Q291.3438,26.6406 291.7656,26.2031 Q292.0313,25.9375 292.1719,25.8594 Q292.3281,25.7813 292.5313,25.7813 Q292.8594,25.7813 293.1094,26.0469 Q293.375,26.2969 293.375,26.6406 Q293.375,26.9844 293.0313,27.3906 Q292.5313,27.9688 291.7344,28.2969 Q290.6563,28.75 289.3594,28.75 Q287.8438,28.75 286.6406,28.125 Q285.6563,27.625 284.9688,26.5625 Q284.2813,25.4844 284.2813,24.2031 L284.2813,23.0469 Q284.2813,21.7188 284.8906,20.5781 Q285.5156,19.4219 286.6094,18.8125 Q287.7031,18.1875 288.9375,18.1875 Q289.6719,18.1875 290.3125,18.3594 Q290.9688,18.5156 291.5156,18.875 Z " fill="#000000"/><text fill="#000000" font-family="sans-serif" font-size="14" lengthAdjust="spacing" textLength="40" x="309.25" y="28.7285">Player</text><line style="stroke:#181818;stroke-width:0.5;" x1="163.5" x2="462.5" y1="39" y2="39"/><rect fill="none" height="6" style="stroke:#C82930;stroke-width:1.0;" width="6" x="170.5" y="50.3047"/><text fill="#000000" font-family="sans-serif" font-size="14" lengthAdjust="spacing" textLength="97" x="182.5" y="57.5332">playerID: String</text><rect fill="none" height="6" style="stroke:#C82930;stroke-width:1.0;" width="6" x="170.5" y="67.9141"/><text fill="#000000" font-family="sans-serif" font-size="14" lengthAdjust="spacing" textLength="120" x="182.5" y="75.1426">playerName: String</text><rect fill="none" height="6" style="stroke:#C82930;stroke-width:1.0;" width="6" x="170.5" y="85.5234"/><text fill="#000000" font-family="sans-serif" font-size="14" lengthAdjust="spacing" textLength="131" x="182.5" y="92.752">heros: Vector&lt;Hero&gt;</text><line style="stroke:#181818;stroke-width:0.5;" x1="163.5" x2="462.5" y1="99.8281" y2="99.8281"/><ellipse cx="173.5" cy="114.1328" fill="#84BE84" rx="3" ry="3" style="stroke:#038048;stroke-width:1.0;"/><text fill="#000000" font-family="sans-serif" font-size="14" lengthAdjust="spacing" textLength="275" x="182.5" y="118.3613">Player(playerID: String, playerName: String)</text><ellipse cx="173.5" cy="131.7422" fill="#84BE84" rx="3" ry="3" style="stroke:#038048;stroke-width:1.0;"/><text fill="#000000" font-family="sans-serif" font-size="14" lengthAdjust="spacing" textLength="128" x="182.5" y="135.9707">getPlayerID(): String</text><ellipse cx="173.5" cy="149.3516" fill="#84BE84" rx="3" ry="3" style="stroke:#038048;stroke-width:1.0;"/><text fill="#000000" font-family="sans-serif" font-size="14" lengthAdjust="spacing" textLength="151" x="182.5" y="153.5801">getPlayerName(): String</text><ellipse cx="173.5" cy="166.9609" fill="#84BE84" rx="3" ry="3" style="stroke:#038048;stroke-width:1.0;"/><text fill="#000000" font-family="sans-serif" font-size="14" lengthAdjust="spacing" textLength="259" x="182.5" y="171.1895">setPlayerName(playerName: String): void</text><ellipse cx="173.5" cy="184.5703" fill="#84BE84" rx="3" ry="3" style="stroke:#038048;stroke-width:1.0;"/><text fill="#000000" font-family="sans-serif" font-size="14" lengthAdjust="spacing" textLength="165" x="182.5" y="188.7988">addHero(hero: Hero): void</text><ellipse cx="173.5" cy="202.1797" fill="#84BE84" rx="3" ry="3" style="stroke:#038048;stroke-width:1.0;"/><text fill="#000000" font-family="sans-serif" font-size="14" lengthAdjust="spacing" textLength="188" x="182.5" y="206.4082">removeHero(hero: Hero): void</text><ellipse cx="173.5" cy="219.7891" fill="#84BE84" rx="3" ry="3" style="stroke:#038048;stroke-width:1.0;"/><text fill="#000000" font-family="sans-serif" font-size="14" lengthAdjust="spacing" textLength="170" x="182.5" y="224.0176">getHeroes(): Vector&lt;Hero&gt;</text><ellipse cx="173.5" cy="237.3984" fill="#84BE84" rx="3" ry="3" style="stroke:#038048;stroke-width:1.0;"/><text fill="#000000" font-family="sans-serif" font-size="14" lengthAdjust="spacing" textLength="159" x="182.5" y="241.627">showPlayerDetails(): void</text></g><!--reverse link Hero to Warrior--><g id="link_Hero_Warrior"><path codeLine="51" d="M219.9627,619.743 C208.0927,640.433 205.27,645.35 194.61,663.96 " fill="none" id="Hero-backto-Warrior" style="stroke:#181818;stroke-width:1.0;"/><polygon fill="none" points="228.92,604.13,214.7584,616.7573,225.167,622.7288,228.92,604.13" style="stroke:#181818;stroke-width:1.0;"/></g><!--reverse link Hero to Warlock--><g id="link_Hero_Warlock"><path codeLine="52" d="M406.597,619.7202 C418.537,640.4102 421.39,645.35 432.12,663.96 " fill="none" id="Hero-backto-Warlock" style="stroke:#181818;stroke-width:1.0;"/><polygon fill="none" points="397.6,604.13,401.4002,622.7192,411.7937,616.7212,397.6,604.13" style="stroke:#181818;stroke-width:1.0;"/></g><!--reverse link Player to Hero--><g id="link_Player_Hero"><path codeLine="53" d="M313,261.19 C313,280.64 313,288.98 313,308.97 " fill="none" id="Player-backto-Hero" style="stroke:#181818;stroke-width:1.0;"/><polygon fill="#181818" points="313,249.19,309,255.19,313,261.19,317,255.19,313,249.19" style="stroke:#181818;stroke-width:1.0;"/><text fill="#000000" font-family="sans-serif" font-size="13" lengthAdjust="spacing" textLength="7" x="305.7977" y="270.1727">1</text><text fill="#000000" font-family="sans-serif" font-size="13" lengthAdjust="spacing" textLength="20" x="292.4531" y="297.982">0..*</text></g><!--SRC=[hLInQiCm4Dtz5SAJayQXNKtev24PMWo6TXRoDJ6HBIEfAQNjlrUILLkoH26GR7hlxjszEry8nKAWFN26lXAaVZawgSUXB50jUTiV7V0PTx24XmArlRIl1dVu23DoPuGpNt0JQAriy17ateHcAw_CnEYaW1CE5oWNwCBQnb4PTFxSdp2GTH54byPFa65XnwsVIJ2bzRcbDFDnSM8VkjLQOlak9l8dIOZPmYlcl6LyMaG3Rz0Jg9YguBPWuwwPQ-b8XNvSCYXwCs-KaVFahHiMZZHxZQEdS9CAweORzbnH_0dpEWRp32vZX6EteQH5WLw0ICPtkj2ZBJmAPql1JKJBSLpPyDXrL5DYx3uSDbB1cmbkckbc2tE-Fi-XOnVuDyGUAvY9HjphiOyTbI1nIxt9ct-YtNUU_ttbFgA_aiJk9Nr8qLh1wVrskqvD8yal]--></g></svg>